<svg width="150" height="49" viewBox="0 0 150 49" fill="none" xmlns="http://www.w3.org/2000/svg">
<path fill-rule="evenodd" clip-rule="evenodd" d="M150 34.2408C149.259 34.3538 148.594 34.4375 148 34.4933C147.403 34.5518 146.864 34.5797 146.385 34.5797C145.902 34.5797 145.364 34.5518 144.77 34.4933C144.175 34.4375 143.52 34.3524 142.811 34.2408V12.3002C143.435 12.1566 144.051 12.0589 144.662 12.0004C145.272 11.9446 145.859 11.9153 146.426 11.9153C146.965 11.9153 147.546 11.9446 148.169 12.0004C148.792 12.0589 149.401 12.1566 150 12.3002V34.2408ZM132.709 28.2867H140.746C140.885 28.853 140.977 29.3774 141.02 29.8627C141.062 30.3439 141.086 30.8098 141.086 31.2631C141.086 31.7149 141.064 32.1919 141.02 32.6899C140.977 33.1822 140.887 33.7164 140.746 34.2827H125.524L125.565 12.3016C126.189 12.158 126.803 12.0603 127.412 12.0018C128.023 11.946 128.61 11.9167 129.178 11.9167C129.716 11.9167 130.298 11.946 130.92 12.0018C131.543 12.0603 132.153 12.158 132.751 12.3016L132.708 28.2867H132.709ZM105.725 23.3117C105.725 21.6101 105.967 20.0522 106.446 18.6337C106.929 17.2181 107.638 16.0047 108.573 14.999C109.509 13.992 110.654 13.2054 112.016 12.6392C113.38 12.0715 114.939 11.7884 116.695 11.7884C117.289 11.7884 117.857 11.8037 118.395 11.8302C118.933 11.8595 119.465 11.9153 119.991 12.0004C120.512 12.0868 121.051 12.2152 121.606 12.3839C122.161 12.5541 122.773 12.7675 123.455 13.0213C123.511 13.9879 123.426 14.9405 123.197 15.8917C122.971 16.8429 122.617 17.7704 122.137 18.677C121.657 18.5068 121.224 18.3743 120.839 18.2753C120.457 18.1721 120.094 18.0954 119.755 18.0382C119.416 17.981 119.079 17.9475 118.756 17.9336C118.43 17.9196 118.081 17.9127 117.716 17.9127C116.356 17.9127 115.229 18.3157 114.335 19.1233C113.441 19.9294 112.995 21.327 112.995 23.3117C112.995 24.3605 113.129 25.2336 113.399 25.9282C113.667 26.62 114.025 27.1667 114.462 27.5628C114.9 27.9589 115.412 28.2448 115.993 28.415C116.574 28.5852 117.19 28.6674 117.843 28.6674C118.664 28.6674 119.38 28.5991 119.989 28.4568C120.599 28.3132 121.314 28.09 122.136 27.7748C122.616 28.5433 123.001 29.3997 123.281 30.3481C123.568 31.2993 123.709 32.383 123.709 33.6006C122.404 34.1111 121.215 34.4375 120.136 34.5797C119.059 34.7192 117.982 34.7931 116.906 34.7931C115.091 34.7931 113.49 34.5225 112.099 33.9828C110.713 33.4458 109.544 32.6745 108.592 31.6661C107.642 30.6605 106.928 29.4541 106.444 28.0524C105.964 26.6507 105.723 25.0676 105.723 23.3117H105.725ZM95.6233 29.4778C95.8743 29.4778 96.2467 29.4499 96.7265 29.3927C97.2091 29.3369 97.5647 29.2783 97.7907 29.224V24.5446H95.3666C94.375 24.5446 93.5395 24.7566 92.8575 25.182C92.1783 25.6088 91.8394 26.2016 91.8394 26.9687C91.8394 27.5349 91.9663 27.9812 92.2215 28.3076C92.4767 28.6298 92.7961 28.8822 93.1811 29.051C93.5591 29.2226 93.9705 29.3355 94.4112 29.3899C94.852 29.4471 95.2537 29.475 95.6247 29.475L95.6233 29.4778ZM85.5868 27.0956C85.5868 25.7092 85.8838 24.56 86.4766 23.6534C87.0735 22.744 87.8379 22.0229 88.7737 21.4832C89.7096 20.9448 90.7445 20.5696 91.8798 20.3562C93.0123 20.1456 94.1183 20.0396 95.1951 20.0396H97.7893C97.7628 19.5278 97.6191 19.101 97.3625 18.762C97.1115 18.4203 96.7809 18.1609 96.3862 17.9754C95.9873 17.7913 95.5507 17.6644 95.0682 17.5933C94.5856 17.5221 94.0891 17.4873 93.58 17.4873C92.898 17.4873 92.1043 17.564 91.1978 17.7202C90.294 17.875 89.3567 18.1233 88.3916 18.465C88.1363 17.9824 87.9146 17.543 87.7319 17.1469C87.5491 16.7508 87.4055 16.3478 87.3079 15.9349C87.206 15.5263 87.1377 15.0995 87.0917 14.6587C87.0526 14.2194 87.0303 13.7173 87.0303 13.151C88.3916 12.6963 89.7445 12.3546 91.089 12.1273C92.4405 11.8999 93.6511 11.7884 94.7278 11.7884C96.1993 11.7884 97.5341 11.9655 98.7252 12.3198C99.9163 12.6754 100.927 13.2194 101.767 13.9558C102.603 14.6936 103.248 15.6364 103.699 16.7843C104.152 17.9336 104.381 19.299 104.381 20.8862V33.3454C103.304 33.655 101.999 33.9688 100.469 34.2799C98.9386 34.5923 97.3193 34.7471 95.6233 34.7471C94.1476 34.7471 92.7947 34.6146 91.5604 34.3468C90.3275 34.0748 89.2703 33.6439 88.393 33.0483C87.5143 32.4528 86.8267 31.6647 86.3301 30.687C85.8336 29.7093 85.5854 28.5112 85.5854 27.0928L85.5868 27.0956ZM73.7385 11.8762C74.9854 11.8762 76.2309 11.9822 77.4806 12.1942C78.7302 12.4062 79.853 12.8526 80.8614 13.5332C81.8656 14.2138 82.6885 15.1887 83.3287 16.4663C83.9647 17.7425 84.2841 19.4287 84.2841 21.525V34.2408C83.5463 34.3817 82.881 34.4737 82.284 34.517C81.6899 34.5602 81.1641 34.5811 80.7136 34.5811C80.231 34.5811 79.6926 34.5602 79.0957 34.517C78.5015 34.4737 77.8334 34.3817 77.0984 34.2408V22.2907C77.0984 20.79 76.8111 19.7119 76.2462 19.0605C75.6786 18.4092 74.8138 18.0828 73.652 18.0828C73.3396 18.0828 73.009 18.1107 72.6534 18.1679C72.2977 18.2237 72.0787 18.2795 71.9951 18.338V34.2422C71.2572 34.3831 70.592 34.4751 69.995 34.5184C69.4023 34.5616 68.8764 34.5825 68.4231 34.5825C67.9406 34.5825 67.405 34.5616 66.808 34.5184C66.2153 34.4751 65.5458 34.3831 64.808 34.2422V13.3644C65.8024 13.0227 67.0075 12.6922 68.4231 12.3644C69.843 12.038 71.6115 11.8762 73.7385 11.8762ZM49.9443 11.7493L47.0921 22.6757C47.5746 22.8165 48.0279 22.9309 48.4533 23.0146C48.8801 23.1011 49.3181 23.1443 49.7755 23.1443C50.2553 23.1443 50.7323 23.1066 51.1982 23.0383C51.664 22.9658 52.1536 22.8584 52.6668 22.7175L49.9457 11.7493H49.9443ZM43.9902 34.199C43.3374 34.3133 42.7433 34.3984 42.2049 34.4542C41.6666 34.5114 41.1421 34.5379 40.6331 34.5379C40.1212 34.5379 39.534 34.5044 38.8673 34.4319C38.202 34.3622 37.4586 34.2562 36.6357 34.1139L46.1604 3.7547C46.8982 3.66822 47.583 3.59849 48.2232 3.53991C48.8592 3.48412 49.505 3.45622 50.1577 3.45622C50.6961 3.45622 51.2832 3.48412 51.9192 3.53991C52.558 3.59849 53.2903 3.66822 54.1118 3.7547L63.5053 34.1571C61.8902 34.411 60.4746 34.5365 59.2542 34.5365C58.6893 34.5365 58.1216 34.5086 57.554 34.4528C56.9863 34.397 56.3796 34.3119 55.7269 34.1976L54.1118 28.2867C53.3154 28.514 52.558 28.6842 51.8342 28.7972C51.1103 28.9115 50.3948 28.9673 49.6877 28.9673C49.0349 28.9673 48.3696 28.9199 47.6904 28.8167C47.0098 28.7191 46.3013 28.5726 45.5634 28.3732L43.9916 34.1976L43.9902 34.199Z" fill="#A6C022"/>
<path fill-rule="evenodd" clip-rule="evenodd" d="M142.71 39.4041C142.765 39.3944 142.83 39.3874 142.892 39.3818C142.961 39.3749 143.029 39.3735 143.102 39.3735C143.17 39.3735 143.238 39.3749 143.307 39.3818C143.375 39.3888 143.44 39.3944 143.502 39.4041V44.3471H145.718C145.731 44.4057 145.738 44.4642 145.738 44.5284C145.74 44.5926 145.74 44.6497 145.74 44.7014C145.74 44.8269 145.733 44.9454 145.718 45.0542H142.71V39.4041ZM138.71 43.0528H140.429L139.565 40.1671L138.71 43.0528ZM140.641 43.7515H138.498L138.113 45.0556C138.044 45.0668 137.976 45.0751 137.908 45.0821C137.842 45.0863 137.771 45.0905 137.705 45.0905C137.631 45.0905 137.559 45.0877 137.486 45.0821C137.415 45.0751 137.35 45.0668 137.297 45.0556L139.134 39.4055C139.199 39.3958 139.274 39.3888 139.353 39.3832C139.432 39.3763 139.513 39.3749 139.598 39.3749C139.673 39.3749 139.749 39.3763 139.824 39.3832C139.905 39.3902 139.98 39.3958 140.055 39.4055L141.885 45.0556C141.824 45.0668 141.751 45.0751 141.673 45.0821C141.595 45.0863 141.52 45.0905 141.445 45.0905C141.376 45.0905 141.305 45.0877 141.235 45.0821C141.167 45.0751 141.099 45.0668 141.036 45.0556L140.641 43.7515ZM135.675 39.4055C135.74 39.3958 135.802 39.3888 135.871 39.3832C135.94 39.3763 136.008 39.3749 136.076 39.3749C136.145 39.3749 136.213 39.3763 136.281 39.3832C136.347 39.3902 136.415 39.3958 136.474 39.4055V45.0556C136.415 45.0668 136.35 45.0751 136.284 45.0821C136.219 45.0863 136.147 45.0905 136.075 45.0905C136.007 45.0905 135.934 45.0877 135.866 45.0821C135.797 45.0751 135.732 45.0668 135.673 45.0556V39.4055H135.675ZM130.995 39.3986C131.112 39.3888 131.22 39.3749 131.312 39.3651C131.41 39.3539 131.497 39.3456 131.589 39.3372C131.68 39.3288 131.778 39.3246 131.877 39.3177C131.979 39.3121 132.089 39.3093 132.21 39.3093C132.474 39.3093 132.741 39.3372 133.002 39.3874C133.263 39.4404 133.499 39.5325 133.701 39.6636C133.906 39.7933 134.072 39.9718 134.2 40.1936C134.331 40.4167 134.396 40.6957 134.396 41.0388C134.396 41.2452 134.359 41.4293 134.291 41.5967C134.223 41.7654 134.138 41.9147 134.033 42.0444C133.926 42.1755 133.807 42.2898 133.67 42.3861C133.541 42.4823 133.412 42.5618 133.285 42.626L133.191 42.6734L134.832 45.0542C134.691 45.0696 134.532 45.0807 134.352 45.0807C134.212 45.0807 134.072 45.071 133.928 45.0542L132.121 42.4391V42.407L132.182 42.3903C132.326 42.354 132.472 42.3052 132.633 42.241C132.79 42.1797 132.933 42.096 133.066 41.9928C133.203 41.8924 133.315 41.7696 133.403 41.6246C133.49 41.4809 133.536 41.3066 133.536 41.1029C133.536 40.725 133.422 40.446 133.203 40.2605C132.977 40.0778 132.677 39.9858 132.302 39.9858C132.21 39.9858 132.129 39.9871 132.054 39.9927C131.976 39.9997 131.891 40.0053 131.8 40.0164V45.0528C131.741 45.057 131.676 45.064 131.603 45.0682C131.532 45.0751 131.467 45.0779 131.408 45.0779C131.343 45.0779 131.274 45.0751 131.203 45.0723C131.128 45.0696 131.059 45.0626 130.994 45.0514V39.3958L130.995 39.3986ZM127.429 44.4573C127.694 44.4573 127.918 44.4071 128.111 44.3052C128.301 44.2034 128.46 44.0556 128.584 43.8617C128.711 43.6678 128.806 43.4363 128.868 43.1602C128.931 42.8882 128.963 42.58 128.963 42.2341C128.963 41.8951 128.931 41.5869 128.868 41.3121C128.807 41.0346 128.712 40.8031 128.584 40.6106C128.46 40.4195 128.299 40.2731 128.111 40.1713C127.918 40.068 127.694 40.0178 127.429 40.0178C127.168 40.0178 126.939 40.068 126.75 40.1713C126.557 40.2731 126.397 40.4181 126.273 40.6106C126.146 40.8031 126.051 41.0346 125.992 41.3121C125.927 41.5869 125.898 41.8937 125.898 42.2341C125.898 42.58 125.927 42.8882 125.992 43.1602C126.051 43.4363 126.146 43.6678 126.273 43.8617C126.397 44.0556 126.557 44.2048 126.75 44.3052C126.938 44.4071 127.167 44.4573 127.429 44.4573ZM127.429 45.1505C127.022 45.1505 126.669 45.0765 126.369 44.9343C126.069 44.7906 125.821 44.587 125.624 44.3248C125.429 44.0695 125.281 43.7613 125.183 43.4029C125.089 43.0472 125.04 42.6553 125.04 42.2313C125.04 41.8073 125.089 41.4168 125.183 41.0597C125.281 40.704 125.427 40.3958 125.624 40.1364C125.819 39.877 126.068 39.6747 126.369 39.5297C126.669 39.3832 127.022 39.3079 127.429 39.3079C127.836 39.3079 128.192 39.3832 128.489 39.5297C128.789 39.6747 129.037 39.877 129.234 40.1364C129.429 40.3958 129.577 40.704 129.67 41.0597C129.762 41.4168 129.811 41.8073 129.811 42.2313C129.811 42.6553 129.762 43.0472 129.67 43.4029C129.575 43.7599 129.429 44.0681 129.234 44.3248C129.037 44.5856 128.789 44.7906 128.489 44.9343C128.192 45.0765 127.836 45.1505 127.429 45.1505ZM122.094 40.1043H120.623C120.613 40.0513 120.603 39.9927 120.599 39.9314C120.596 39.8672 120.592 39.8086 120.592 39.75C120.592 39.6929 120.595 39.6329 120.599 39.5743C120.602 39.5129 120.611 39.4558 120.623 39.4041H124.365C124.374 39.4544 124.381 39.5115 124.387 39.5687C124.394 39.6273 124.394 39.6831 124.394 39.7417C124.394 39.8003 124.394 39.8616 124.387 39.9258C124.38 39.9927 124.374 40.0513 124.365 40.1029H122.893V45.0528C122.773 45.0682 122.642 45.0793 122.501 45.0793C122.355 45.0793 122.217 45.0696 122.094 45.0528V40.1029V40.1043ZM117.118 43.0528H118.837L117.975 40.1671L117.118 43.0528ZM119.052 43.7515H116.906L116.521 45.0556C116.452 45.0668 116.384 45.0751 116.316 45.0821C116.247 45.0863 116.179 45.0905 116.113 45.0905C116.038 45.0905 115.966 45.0877 115.894 45.0821C115.826 45.0751 115.761 45.0668 115.702 45.0556L117.543 39.4055C117.611 39.3958 117.684 39.3888 117.762 39.3832C117.844 39.3763 117.922 39.3749 118.008 39.3749C118.079 39.3749 118.157 39.3763 118.236 39.3832C118.314 39.3902 118.39 39.3958 118.465 39.4055L120.295 45.0556C120.234 45.0668 120.161 45.0751 120.083 45.0821C120.005 45.0863 119.929 45.0905 119.854 45.0905C119.786 45.0905 119.717 45.0877 119.645 45.0821C119.577 45.0751 119.508 45.0668 119.445 45.0556L119.054 43.7515H119.052ZM111.593 39.3986C111.707 39.3888 111.812 39.3749 111.906 39.3651C111.998 39.3539 112.091 39.3456 112.186 39.3372C112.277 39.3288 112.371 39.3246 112.47 39.3177C112.572 39.3121 112.682 39.3093 112.801 39.3093C113.069 39.3093 113.332 39.3372 113.597 39.3874C113.858 39.4404 114.094 39.5325 114.296 39.6636C114.503 39.7933 114.669 39.9718 114.795 40.1936C114.922 40.4167 114.988 40.6957 114.988 41.0388C114.988 41.2452 114.956 41.4293 114.886 41.5967C114.818 41.7654 114.733 41.9147 114.625 42.0444C114.521 42.1755 114.404 42.2898 114.27 42.3861C114.136 42.4823 114.006 42.5618 113.882 42.626L113.784 42.6734L115.426 45.0542C115.289 45.0696 115.129 45.0807 114.95 45.0807C114.809 45.0807 114.67 45.071 114.525 45.0542L112.721 42.4391V42.407L112.78 42.3903C112.921 42.354 113.07 42.3052 113.228 42.241C113.384 42.1797 113.53 42.096 113.666 41.9928C113.8 41.8924 113.91 41.7696 113.999 41.6246C114.09 41.4809 114.136 41.3066 114.136 41.1029C114.136 40.725 114.021 40.446 113.8 40.2605C113.578 40.0778 113.278 39.9858 112.899 39.9858C112.811 39.9858 112.73 39.9871 112.65 39.9927C112.576 39.9997 112.491 40.0053 112.396 40.0164V45.0528C112.338 45.057 112.277 45.064 112.204 45.0682C112.136 45.0751 112.067 45.0779 112.002 45.0779C111.943 45.0779 111.871 45.0751 111.798 45.0723C111.727 45.0696 111.659 45.0626 111.596 45.0514V39.3958L111.593 39.3986ZM108.024 44.4573C108.285 44.4573 108.511 44.4071 108.703 44.3052C108.896 44.2034 109.052 44.0556 109.18 43.8617C109.307 43.6678 109.399 43.4363 109.465 43.1602C109.526 42.8882 109.555 42.58 109.555 42.2341C109.555 41.8951 109.526 41.5869 109.465 41.3121C109.399 41.0346 109.309 40.8031 109.18 40.6106C109.053 40.4195 108.896 40.2731 108.703 40.1713C108.511 40.068 108.286 40.0178 108.024 40.0178C107.763 40.0178 107.539 40.068 107.346 40.1713C107.154 40.2731 106.993 40.4181 106.869 40.6106C106.742 40.8031 106.647 41.0346 106.585 41.3121C106.523 41.5869 106.49 41.8937 106.49 42.2341C106.49 42.58 106.522 42.8882 106.585 43.1602C106.646 43.4363 106.741 43.6678 106.869 43.8617C106.993 44.0556 107.154 44.2048 107.346 44.3052C107.539 44.4071 107.763 44.4573 108.024 44.4573ZM108.024 45.1505C107.617 45.1505 107.261 45.0765 106.964 44.9343C106.664 44.7906 106.416 44.587 106.221 44.3248C106.024 44.0695 105.877 43.7613 105.78 43.4029C105.682 43.0472 105.636 42.6553 105.636 42.2313C105.636 41.8073 105.682 41.4168 105.78 41.0597C105.877 40.704 106.024 40.3958 106.221 40.1364C106.416 39.877 106.664 39.6747 106.964 39.5297C107.261 39.3832 107.617 39.3079 108.024 39.3079C108.431 39.3079 108.784 39.3832 109.085 39.5297C109.382 39.6747 109.631 39.877 109.829 40.1364C110.024 40.3958 110.172 40.704 110.263 41.0597C110.36 41.4168 110.406 41.8073 110.406 42.2313C110.406 42.6553 110.36 43.0472 110.263 43.4029C110.17 43.7599 110.024 44.0681 109.829 44.3248C109.631 44.5856 109.382 44.7906 109.085 44.9343C108.786 45.0765 108.433 45.1505 108.024 45.1505ZM102.545 41.7626C102.904 41.7626 103.176 41.6845 103.361 41.5297C103.554 41.3763 103.645 41.1434 103.645 40.8351C103.645 40.5367 103.543 40.3135 103.345 40.1671C103.14 40.0192 102.869 39.9467 102.523 39.9467C102.419 39.9467 102.318 39.9495 102.22 39.9551C102.123 39.962 102.041 39.969 101.972 39.9788V41.764H102.547L102.545 41.7626ZM101.971 44.4336C102.043 44.4447 102.137 44.4531 102.251 44.4559C102.363 44.4601 102.477 44.4642 102.585 44.4642C102.774 44.4642 102.95 44.4489 103.116 44.4196C103.282 44.3889 103.426 44.3331 103.554 44.2578C103.678 44.1811 103.776 44.0807 103.851 43.951C103.922 43.8241 103.961 43.6609 103.961 43.4586C103.961 43.2662 103.926 43.1016 103.861 42.9691C103.792 42.8366 103.698 42.7278 103.58 42.6455C103.46 42.566 103.322 42.5074 103.159 42.4726C102.996 42.4377 102.82 42.4237 102.633 42.4237H101.971V44.4336ZM101.177 39.4041C101.307 39.379 101.491 39.3567 101.725 39.34C101.964 39.3246 102.201 39.3177 102.444 39.3177C102.744 39.3177 103.014 39.3442 103.26 39.3972C103.504 39.4474 103.716 39.5325 103.893 39.651C104.069 39.7696 104.207 39.9202 104.304 40.1057C104.399 40.2898 104.444 40.5185 104.444 40.7849C104.444 40.9481 104.421 41.1001 104.373 41.2382C104.324 41.3763 104.258 41.5004 104.173 41.6064C104.088 41.7138 103.99 41.8017 103.883 41.8742C103.771 41.9467 103.657 41.997 103.544 42.0276C103.692 42.043 103.841 42.0834 103.989 42.1448C104.138 42.209 104.276 42.2982 104.393 42.414C104.513 42.5297 104.612 42.6748 104.691 42.8491C104.764 43.0235 104.802 43.2369 104.802 43.4879C104.802 43.7934 104.744 44.0486 104.622 44.262C104.502 44.474 104.338 44.647 104.13 44.7781C103.925 44.9106 103.679 45.0054 103.402 45.0626C103.121 45.1198 102.817 45.1491 102.501 45.1491C102.301 45.1491 102.084 45.1393 101.848 45.1198C101.61 45.103 101.388 45.0807 101.179 45.0528V39.4028L101.177 39.4041ZM97.1674 43.0528H98.8899L98.0251 40.1671L97.1674 43.0528ZM99.1019 43.7515H96.9554L96.5704 45.0556C96.5049 45.0668 96.4365 45.0751 96.3682 45.0821C96.2998 45.0863 96.2315 45.0905 96.1632 45.0905C96.0878 45.0905 96.0167 45.0877 95.947 45.0821C95.8758 45.0751 95.8131 45.0668 95.7545 45.0556L97.5914 39.4055C97.6597 39.3958 97.735 39.3888 97.8131 39.3832C97.8912 39.3763 97.9735 39.3749 98.0572 39.3749C98.1283 39.3749 98.2064 39.3763 98.2832 39.3832C98.3613 39.3902 98.4394 39.3958 98.5119 39.4055L100.346 45.0556C100.28 45.0668 100.212 45.0751 100.13 45.0821C100.052 45.0863 99.9792 45.0905 99.9038 45.0905C99.8355 45.0905 99.7672 45.0877 99.6946 45.0821C99.6235 45.0751 99.5538 45.0668 99.4924 45.0556L99.1005 43.7515H99.1019ZM92.4295 39.4055C92.488 39.3958 92.5466 39.3888 92.615 39.3832C92.6763 39.3763 92.7488 39.3749 92.82 39.3749C92.8925 39.3749 92.9567 39.3763 93.0264 39.3832C93.092 39.3902 93.1603 39.3958 93.2217 39.4055V44.3485H95.4365C95.4463 44.4071 95.456 44.4656 95.4588 44.5298C95.4588 44.594 95.4616 44.6511 95.4616 44.7027C95.4616 44.8283 95.4518 44.9468 95.4351 45.0556H92.4267V39.4055H92.4295ZM87.0123 44.4587C87.2731 44.4587 87.5019 44.4085 87.6943 44.3066C87.8826 44.2048 88.043 44.057 88.1699 43.8631C88.2941 43.6692 88.3889 43.4377 88.4503 43.1616C88.5158 42.8896 88.5451 42.5814 88.5451 42.2355C88.5451 41.8965 88.5158 41.5883 88.4503 41.3135C88.3889 41.036 88.2941 40.8045 88.1699 40.612C88.043 40.4209 87.8826 40.2745 87.6943 40.1726C87.5019 40.0694 87.2731 40.0192 87.0123 40.0192C86.7515 40.0192 86.5255 40.0694 86.3303 40.1726C86.1406 40.2745 85.9816 40.4195 85.8575 40.612C85.7333 40.8045 85.6385 41.036 85.5729 41.3135C85.5116 41.5883 85.4809 41.8951 85.4809 42.2355C85.4809 42.5814 85.5102 42.8896 85.5729 43.1616C85.6385 43.4377 85.7333 43.6692 85.8575 43.8631C85.9816 44.057 86.1406 44.2062 86.3303 44.3066C86.5255 44.4085 86.7515 44.4587 87.0123 44.4587ZM87.0123 45.1518C86.605 45.1518 86.2522 45.0779 85.9523 44.9357C85.6552 44.792 85.4084 44.5884 85.2117 44.3262C85.0123 44.0709 84.8658 43.7627 84.771 43.4042C84.6733 43.0486 84.6245 42.6567 84.6245 42.2327C84.6245 41.8087 84.6733 41.4181 84.771 41.0611C84.8658 40.7054 85.0123 40.3972 85.2117 40.1378C85.4084 39.8784 85.6552 39.6761 85.9523 39.5311C86.2522 39.3846 86.605 39.3093 87.0123 39.3093C87.4238 39.3093 87.7752 39.3846 88.0765 39.5311C88.3736 39.6761 88.6218 39.8784 88.8171 40.1378C89.0124 40.3972 89.1602 40.7054 89.255 41.0611C89.3499 41.4181 89.3945 41.8087 89.3945 42.2327C89.3945 42.6567 89.3485 43.0486 89.255 43.4042C89.1602 43.7613 89.0138 44.0695 88.8171 44.3262C88.6218 44.587 88.3736 44.792 88.0765 44.9357C87.7766 45.0779 87.4238 45.1518 87.0123 45.1518ZM83.5868 44.2299C83.7012 44.4573 83.7751 44.6735 83.8086 44.8841C83.5868 44.9789 83.3609 45.0472 83.1294 45.0905C82.9006 45.1309 82.6524 45.1518 82.3846 45.1518C81.9731 45.1518 81.6049 45.0849 81.2786 44.951C80.948 44.8171 80.6746 44.626 80.4459 44.3764C80.2241 44.1281 80.0512 43.8255 79.9298 43.4684C79.8099 43.11 79.7471 42.7097 79.7471 42.2647C79.7471 41.8128 79.8085 41.4084 79.9298 41.043C80.0498 40.6789 80.2227 40.3693 80.4459 40.1113C80.6746 39.8546 80.948 39.658 81.2744 39.5199C81.5979 39.3804 81.9634 39.3107 82.3678 39.3107C82.6649 39.3107 82.9216 39.333 83.1377 39.3749C83.3497 39.4139 83.5422 39.4641 83.7124 39.5241C83.6998 39.644 83.6761 39.7556 83.644 39.8588C83.6078 39.962 83.5687 40.0694 83.5241 40.1852C83.446 40.1601 83.3679 40.135 83.2953 40.1141C83.2214 40.0945 83.1419 40.075 83.061 40.0597C82.9759 40.0429 82.8811 40.0318 82.7807 40.0234C82.6789 40.015 82.5617 40.0123 82.432 40.0123C81.8615 40.0123 81.4166 40.2075 81.1014 40.5925C80.7848 40.9816 80.6258 41.5409 80.6258 42.2661C80.6258 42.6399 80.6718 42.9607 80.7597 43.2341C80.8476 43.5088 80.9717 43.732 81.1349 43.9105C81.2981 44.0877 81.4933 44.2202 81.7221 44.3108C81.9508 44.4001 82.2047 44.4433 82.4878 44.4433C82.7068 44.4433 82.9062 44.4266 83.0847 44.3903C83.2605 44.3527 83.4306 44.3011 83.5882 44.2299H83.5868ZM77.7917 39.4055C77.8573 39.3958 77.9214 39.3888 77.9898 39.3832C78.0581 39.3763 78.1237 39.3749 78.1962 39.3749C78.2645 39.3749 78.3301 39.3763 78.3984 39.3832C78.4668 39.3902 78.5323 39.3958 78.5951 39.4055V45.0556C78.5337 45.0668 78.4682 45.0751 78.4026 45.0821C78.3412 45.0863 78.2687 45.0905 78.1976 45.0905C78.1251 45.0905 78.0567 45.0877 77.9884 45.0821C77.9172 45.0751 77.8517 45.0668 77.7931 45.0556V39.4055H77.7917ZM74.6326 40.1057H73.164C73.1514 40.0527 73.1445 39.9941 73.1417 39.9328C73.1347 39.8686 73.1319 39.81 73.1319 39.7514C73.1319 39.6943 73.1347 39.6343 73.1417 39.5757C73.1445 39.5143 73.1514 39.4571 73.164 39.4055H76.9033C76.9158 39.4557 76.9228 39.5129 76.9298 39.5701C76.9326 39.6287 76.9367 39.6845 76.9367 39.7431C76.9367 39.8016 76.934 39.863 76.9298 39.9272C76.9228 39.9941 76.9172 40.0527 76.9033 40.1043H75.4346V45.0542C75.3175 45.0696 75.1836 45.0807 75.0399 45.0807C74.8962 45.0807 74.7596 45.071 74.6326 45.0542V40.1043V40.1057ZM69.235 44.1992C69.408 44.2634 69.5879 44.3192 69.7776 44.3652C69.9659 44.4126 70.1946 44.435 70.4694 44.435C70.8989 44.435 71.2197 44.3485 71.4317 44.1727C71.6437 43.997 71.7483 43.7599 71.7483 43.46C71.7483 43.315 71.726 43.1895 71.6828 43.0848C71.6367 42.9802 71.5712 42.8882 71.4805 42.8115C71.3927 42.7362 71.2811 42.6664 71.1472 42.6037C71.0133 42.5395 70.8571 42.4726 70.6814 42.3986L70.235 42.2187C70.0816 42.156 69.9408 42.089 69.8166 42.0109C69.6897 41.9356 69.5823 41.8421 69.4903 41.7333C69.3996 41.6204 69.3243 41.4948 69.2755 41.3498C69.2197 41.2075 69.1974 41.036 69.1974 40.8351C69.1974 40.3581 69.3578 39.9871 69.6827 39.7152C70.0063 39.446 70.4624 39.3107 71.051 39.3107C71.302 39.3107 71.5405 39.333 71.7651 39.3749C71.991 39.4139 72.1891 39.4697 72.362 39.5339C72.3369 39.7528 72.2811 39.9704 72.1891 40.1838C72.0496 40.1308 71.8822 40.0848 71.6995 40.0415C71.514 40.0011 71.3006 39.9802 71.0663 39.9802C70.7371 39.9802 70.4819 40.0471 70.3034 40.181C70.1276 40.3135 70.0356 40.5144 70.0356 40.7808C70.0356 40.8895 70.0579 40.99 70.1039 41.0736C70.1472 41.1615 70.2058 41.2368 70.2797 41.3038C70.3508 41.3679 70.4401 41.4265 70.5377 41.4795C70.6395 41.5311 70.7427 41.5771 70.8543 41.6204L71.295 41.7947C71.5042 41.8798 71.6897 41.9663 71.8529 42.0569C72.0161 42.1476 72.1528 42.2564 72.2672 42.3805C72.3843 42.5032 72.4722 42.6497 72.5322 42.8143C72.5907 42.9844 72.6228 43.1783 72.6228 43.4042C72.6228 43.9454 72.4373 44.3708 72.0649 44.6804C71.6925 44.9942 71.1709 45.1505 70.4986 45.1505C70.3355 45.1505 70.189 45.1435 70.0579 45.1337C69.931 45.124 69.8069 45.1058 69.6953 45.0877C69.5809 45.064 69.4735 45.0375 69.3689 45.0096C69.2615 44.9775 69.1569 44.944 69.0453 44.905C69.0551 44.7906 69.0788 44.6721 69.1165 44.5521C69.1499 44.4322 69.1918 44.3136 69.2336 44.1965L69.235 44.1992ZM66.0383 38.9355C65.9658 38.9467 65.8946 38.9536 65.8221 38.9592C65.7468 38.962 65.6757 38.9676 65.6031 38.9676C65.5278 38.9676 65.4623 38.9634 65.3981 38.9592C65.3367 38.9523 65.267 38.9467 65.1959 38.9355L66.0285 38.0861C66.1136 38.0764 66.2015 38.0666 66.2949 38.0582C66.3898 38.0499 66.4846 38.0471 66.5794 38.0471C66.6771 38.0471 66.7719 38.0499 66.8598 38.0582C66.9477 38.0666 67.0299 38.0764 67.1053 38.0861L66.0383 38.9355ZM65.8458 44.4601C66.1108 44.4601 66.3354 44.4098 66.5278 44.308C66.7203 44.2062 66.8765 44.0584 67.0007 43.8645C67.1276 43.6706 67.2224 43.4391 67.2838 43.163C67.3493 42.891 67.3786 42.5827 67.3786 42.2369C67.3786 41.8979 67.3493 41.5897 67.2838 41.3149C67.2224 41.0374 67.1276 40.8059 67.0007 40.6134C66.8765 40.4223 66.7203 40.2759 66.5278 40.174C66.3354 40.0708 66.1108 40.0206 65.8458 40.0206C65.585 40.0206 65.3604 40.0708 65.168 40.174C64.9755 40.2759 64.8193 40.4209 64.691 40.6134C64.5668 40.8059 64.472 41.0374 64.4106 41.3149C64.3451 41.5897 64.3158 41.8965 64.3158 42.2369C64.3158 42.5827 64.3451 42.891 64.4106 43.163C64.472 43.4391 64.5668 43.6706 64.691 43.8645C64.8179 44.0584 64.9755 44.2076 65.168 44.308C65.3604 44.4098 65.585 44.4601 65.8458 44.4601ZM65.8458 45.1532C65.4413 45.1532 65.0857 45.0793 64.7858 44.9371C64.4887 44.7934 64.2377 44.5898 64.041 44.3276C63.8458 44.0723 63.6979 43.7641 63.6045 43.4056C63.5068 43.05 63.458 42.6581 63.458 42.2341C63.458 41.8101 63.5068 41.4195 63.6045 41.0625C63.6993 40.7068 63.8458 40.3986 64.041 40.1392C64.2363 39.8797 64.4887 39.6775 64.7858 39.5325C65.0857 39.386 65.4413 39.3107 65.8458 39.3107C66.2573 39.3107 66.6101 39.386 66.91 39.5325C67.2071 39.6775 67.4553 39.8797 67.6506 40.1392C67.8459 40.3986 67.9937 40.7068 68.0871 41.0625C68.182 41.4195 68.228 41.8101 68.228 42.2341C68.228 42.6581 68.182 43.05 68.0871 43.4056C67.9923 43.7627 67.8459 44.0709 67.6506 44.3276C67.4539 44.5884 67.2057 44.7934 66.91 44.9371C66.6101 45.0793 66.2573 45.1532 65.8458 45.1532ZM58.3407 39.4069C58.3993 39.3972 58.4621 39.3902 58.5262 39.3846C58.5918 39.3776 58.6532 39.3762 58.709 39.3762C58.7675 39.3762 58.8303 39.3776 58.8958 39.3846C58.9614 39.3916 59.0228 39.3972 59.0813 39.4069L61.5389 43.6525V39.4069C61.6044 39.3972 61.6686 39.3902 61.7341 39.3846C61.8025 39.3776 61.8708 39.3762 61.9392 39.3762C61.9977 39.3762 62.0563 39.3776 62.1219 39.3846C62.1832 39.3916 62.246 39.3972 62.3018 39.4069V45.057C62.246 45.0682 62.1846 45.0765 62.1149 45.0835C62.0535 45.0877 61.988 45.0919 61.9322 45.0919C61.8736 45.0919 61.8108 45.0891 61.7453 45.0835C61.6797 45.0765 61.6184 45.0682 61.5626 45.057L59.0953 40.8379V45.057C59.0339 45.0682 58.9753 45.0765 58.9098 45.0835C58.8442 45.0877 58.7801 45.0919 58.7173 45.0919C58.649 45.0919 58.5806 45.0891 58.5151 45.0835C58.4495 45.0765 58.391 45.0682 58.3393 45.057V39.4069H58.3407ZM56.2598 42.1323C56.3212 42.1225 56.3867 42.1141 56.4551 42.1099C56.5234 42.1071 56.5917 42.1016 56.6573 42.1016C56.7256 42.1016 56.7982 42.1057 56.8623 42.1099C56.9307 42.1141 56.9934 42.1225 57.052 42.1323V44.891C56.9404 44.9385 56.8233 44.9803 56.6894 45.0138C56.5597 45.0486 56.423 45.0737 56.2821 45.0919C56.1426 45.11 55.9976 45.1267 55.8581 45.1365C55.7172 45.1463 55.5834 45.1532 55.4564 45.1532C55.0352 45.1532 54.66 45.0877 54.3239 44.9566C53.9878 44.8241 53.7074 44.633 53.4759 44.3875C53.2472 44.1365 53.0686 43.8352 52.9445 43.4782C52.8246 43.1211 52.7618 42.7166 52.7618 42.2661C52.7618 41.8142 52.8232 41.4098 52.9473 41.0444C53.0742 40.6803 53.2541 40.3707 53.4885 40.1127C53.72 39.856 53.9975 39.6594 54.3197 39.5213C54.6433 39.3818 54.999 39.3121 55.3937 39.3121C55.6907 39.3121 55.9516 39.3316 56.1705 39.3707C56.3923 39.4111 56.5904 39.4627 56.7675 39.5339C56.7577 39.6524 56.7354 39.7654 56.7019 39.8672C56.6657 39.9676 56.628 40.0778 56.5778 40.195C56.4314 40.1461 56.2751 40.1043 56.105 40.068C55.932 40.0304 55.72 40.0123 55.462 40.0123C55.1845 40.0123 54.9334 40.0625 54.7047 40.1601C54.4759 40.2619 54.2835 40.4042 54.1245 40.5966C53.9641 40.7877 53.8399 41.0234 53.7479 41.3052C53.66 41.5841 53.614 41.9049 53.614 42.2661C53.614 42.6399 53.66 42.9607 53.7549 43.2285C53.8455 43.4991 53.9724 43.7264 54.1426 43.905C54.3127 44.0849 54.508 44.2188 54.7354 44.3066C54.9613 44.3917 55.2151 44.435 55.4927 44.435C55.6587 44.435 55.8051 44.4252 55.9334 44.4071C56.0576 44.3889 56.165 44.368 56.257 44.3401V42.1309L56.2598 42.1323ZM48.989 43.0542H50.7088L49.844 40.1685L48.989 43.0542ZM50.9208 43.7529H48.7743L48.3921 45.057C48.3238 45.0682 48.2554 45.0765 48.1829 45.0835C48.1173 45.0877 48.049 45.0919 47.9807 45.0919C47.9095 45.0919 47.837 45.0891 47.7659 45.0835C47.6947 45.0765 47.632 45.0682 47.5734 45.057L49.4144 39.4069C49.4828 39.3972 49.5539 39.3902 49.632 39.3846C49.7101 39.3776 49.7924 39.3762 49.8775 39.3762C49.9486 39.3762 50.0239 39.3776 50.1062 39.3846C50.1815 39.3916 50.2596 39.3972 50.335 39.4069L52.1649 45.057C52.1035 45.0682 52.031 45.0765 51.9529 45.0835C51.8748 45.0877 51.7966 45.0919 51.7241 45.0919C51.6558 45.0919 51.5874 45.0891 51.5149 45.0835C51.4424 45.0765 51.3782 45.0682 51.3155 45.057L50.9208 43.7529ZM45.9541 39.4069C46.0155 39.3972 46.081 39.3902 46.1494 39.3846C46.2177 39.3776 46.286 39.3762 46.3544 39.3762C46.4227 39.3762 46.4911 39.3776 46.5566 39.3846C46.625 39.3916 46.6905 39.3972 46.7519 39.4069V45.057C46.6905 45.0682 46.625 45.0765 46.5636 45.0835C46.498 45.0877 46.4269 45.0919 46.3544 45.0919C46.286 45.0919 46.2177 45.0891 46.1424 45.0835C46.074 45.0765 46.0085 45.0682 45.9541 45.057V39.4069ZM41.2678 44.3959C41.3431 44.4085 41.4338 44.4168 41.5384 44.4266C41.6458 44.4322 41.7601 44.4363 41.8815 44.4363C42.1911 44.4363 42.4728 44.4001 42.7267 44.329C42.9805 44.2606 43.1995 44.1421 43.3822 43.9747C43.5677 43.8031 43.7086 43.5786 43.8062 43.2927C43.908 43.0067 43.9568 42.6511 43.9568 42.2201C43.9568 41.8268 43.908 41.4921 43.8062 41.2145C43.7086 40.9356 43.5677 40.711 43.385 40.5339C43.2051 40.3581 42.9875 40.2326 42.7364 40.1531C42.4854 40.0736 42.2078 40.0346 41.9052 40.0346C41.8062 40.0346 41.696 40.036 41.5816 40.0388C41.4603 40.0415 41.3598 40.0499 41.2678 40.0666V44.3945V44.3959ZM40.4658 39.4069C40.6443 39.3874 40.8605 39.3665 41.1116 39.3484C41.3626 39.3302 41.6081 39.3205 41.8494 39.3205C42.8411 39.3205 43.5789 39.5715 44.0712 40.0736C44.5622 40.5785 44.8062 41.3024 44.8062 42.2438C44.8062 43.2299 44.5552 43.9607 44.0559 44.4363C43.5566 44.9147 42.809 45.1532 41.8201 45.1532C41.576 45.1532 41.3306 45.1435 41.0893 45.124C40.848 45.1072 40.6388 45.0849 40.4672 45.057V39.4069H40.4658Z" fill="#A6C022"/>
<path fill-rule="evenodd" clip-rule="evenodd" d="M3.00224 19.4044C-2.68718 27.2457 0.419945 35.5128 6.40661 39.6603C13.1317 44.3155 25.8915 43.9889 29.9956 27.8309C32.3937 18.4105 31.5175 6.71738 30.2743 0C29.2061 2.3284 26.7786 4.8751 23.8882 7.04404C17.3798 11.9238 7.52436 13.1762 3.00224 19.4013V19.4044Z" fill="#FF0068"/>
<path fill-rule="evenodd" clip-rule="evenodd" d="M15.7064 37.3458C14.4354 38.8924 13.9462 40.6372 14.0035 42.2519C14.166 46.9846 18.7377 49.4894 23.0183 48.5219C25.3281 47.997 27.5714 46.2554 28.8238 42.3216C30.2899 37.7251 30.2001 31.9072 29.7868 28.5431C29.1846 29.664 27.9104 30.856 26.4149 31.8453C23.0462 34.0684 18.1277 34.3966 15.7049 37.3474L15.7064 37.3458Z" fill="#A6C022"/>
<path fill-rule="evenodd" clip-rule="evenodd" d="M14.0046 42.2318C20.0965 42.5662 26.848 39.1215 29.7956 28.5942L29.7879 28.5431C29.1857 29.664 27.9116 30.856 26.416 31.8437C23.0473 34.0684 18.1288 34.3951 15.706 37.3458C14.4381 38.8862 13.9489 40.6217 14.003 42.2318H14.0046Z" fill="#D1D87F"/>
</svg>
