<svg width="300" height="177" viewBox="0 0 300 177" fill="none" xmlns="http://www.w3.org/2000/svg">
<path fill-rule="evenodd" clip-rule="evenodd" d="M300 175.328C298.04 175.626 296.28 175.848 294.707 175.996C293.127 176.151 291.703 176.224 290.433 176.224C289.156 176.224 287.731 176.151 286.159 175.996C284.587 175.848 282.852 175.623 280.977 175.328V117.265C282.627 116.885 284.258 116.627 285.875 116.472C287.488 116.324 289.042 116.247 290.544 116.247C291.969 116.247 293.508 116.324 295.154 116.472C296.804 116.627 298.417 116.885 300 117.265V175.328ZM254.243 159.571H275.511C275.88 161.069 276.123 162.457 276.238 163.742C276.348 165.015 276.411 166.248 276.411 167.447C276.411 168.643 276.352 169.906 276.238 171.223C276.123 172.526 275.883 173.94 275.511 175.438H235.228L235.338 117.269C236.988 116.889 238.612 116.63 240.225 116.475C241.842 116.328 243.396 116.25 244.898 116.25C246.323 116.25 247.862 116.328 249.508 116.475C251.158 116.63 252.771 116.889 254.354 117.269L254.24 159.571H254.243ZM182.835 146.405C182.835 141.902 183.473 137.78 184.743 134.026C186.02 130.28 187.895 127.068 190.372 124.407C192.848 121.742 195.878 119.661 199.481 118.162C203.091 116.66 207.217 115.911 211.864 115.911C213.436 115.911 214.938 115.951 216.363 116.021C217.788 116.099 219.194 116.247 220.586 116.472C221.966 116.701 223.391 117.04 224.86 117.487C226.329 117.937 227.949 118.502 229.754 119.173C229.902 121.731 229.676 124.252 229.071 126.769C228.473 129.287 227.536 131.741 226.266 134.14C224.996 133.69 223.848 133.339 222.83 133.077C221.818 132.804 220.859 132.601 219.962 132.45C219.065 132.298 218.172 132.21 217.319 132.173C216.455 132.136 215.533 132.118 214.566 132.118C210.967 132.118 207.985 133.184 205.619 135.321C203.253 137.455 202.072 141.153 202.072 146.405C202.072 149.181 202.426 151.491 203.142 153.329C203.851 155.16 204.799 156.607 205.955 157.655C207.114 158.704 208.468 159.46 210.007 159.91C211.543 160.361 213.174 160.579 214.902 160.579C217.076 160.579 218.969 160.398 220.582 160.021C222.195 159.641 224.088 159.05 226.262 158.216C227.532 160.25 228.551 162.516 229.293 165.026C230.053 167.543 230.426 170.411 230.426 173.633C226.971 174.984 223.826 175.848 220.969 176.224C218.12 176.594 215.271 176.789 212.421 176.789C207.619 176.789 203.382 176.073 199.702 174.645C196.033 173.224 192.94 171.183 190.42 168.514C187.906 165.853 186.016 162.66 184.735 158.951C183.466 155.241 182.827 151.052 182.827 146.405H182.835ZM156.101 162.723C156.766 162.723 157.751 162.649 159.021 162.498C160.298 162.35 161.239 162.195 161.837 162.051V149.668H155.422C152.798 149.668 150.587 150.229 148.782 151.355C146.984 152.484 146.088 154.053 146.088 156.083C146.088 157.581 146.423 158.763 147.099 159.626C147.774 160.479 148.62 161.147 149.638 161.594C150.639 162.048 151.727 162.346 152.894 162.49C154.06 162.642 155.123 162.716 156.105 162.716L156.101 162.723ZM129.541 156.419C129.541 152.75 130.327 149.709 131.896 147.31C133.476 144.903 135.498 142.995 137.975 141.566C140.452 140.142 143.19 139.149 146.195 138.584C149.192 138.027 152.119 137.746 154.968 137.746H161.833C161.763 136.392 161.383 135.262 160.704 134.365C160.039 133.461 159.165 132.775 158.12 132.284C157.064 131.797 155.909 131.461 154.632 131.272C153.355 131.084 152.041 130.992 150.694 130.992C148.889 130.992 146.789 131.195 144.39 131.608C141.998 132.018 139.518 132.675 136.964 133.579C136.288 132.302 135.701 131.14 135.218 130.091C134.734 129.043 134.354 127.976 134.096 126.884C133.826 125.802 133.645 124.673 133.524 123.507C133.42 122.344 133.361 121.015 133.361 119.517C136.964 118.314 140.544 117.409 144.102 116.808C147.678 116.206 150.882 115.911 153.732 115.911C157.625 115.911 161.158 116.379 164.31 117.317C167.462 118.258 170.138 119.698 172.36 121.646C174.571 123.599 176.28 126.094 177.472 129.132C178.671 132.173 179.277 135.786 179.277 139.987V172.958C176.427 173.777 172.972 174.608 168.923 175.431C164.875 176.258 160.589 176.667 156.101 176.667C152.196 176.667 148.616 176.317 145.349 175.608C142.087 174.888 139.289 173.748 136.967 172.172C134.642 170.596 132.822 168.51 131.508 165.923C130.194 163.336 129.537 160.165 129.537 156.411L129.541 156.419ZM98.1865 116.143C101.486 116.143 104.782 116.424 108.089 116.985C111.396 117.546 114.368 118.727 117.036 120.528C119.694 122.329 121.871 124.909 123.565 128.29C125.249 131.667 126.094 136.13 126.094 141.677V175.328C124.141 175.7 122.381 175.944 120.801 176.058C119.229 176.173 117.837 176.228 116.645 176.228C115.368 176.228 113.943 176.173 112.363 176.058C110.791 175.944 109.023 175.7 107.078 175.328V143.704C107.078 139.732 106.318 136.879 104.823 135.155C103.321 133.432 101.032 132.568 97.9577 132.568C97.1309 132.568 96.2561 132.642 95.315 132.793C94.3738 132.941 93.7943 133.088 93.5728 133.243V175.331C91.6203 175.704 89.8597 175.948 88.28 176.062C86.7114 176.176 85.3199 176.232 84.1203 176.232C82.8433 176.232 81.4259 176.176 79.8462 176.062C78.2776 175.948 76.5059 175.704 74.5534 175.331V120.081C77.185 119.177 80.374 118.302 84.1203 117.435C87.8777 116.571 92.5578 116.143 98.1865 116.143ZM35.219 115.807L27.671 144.722C28.9481 145.095 30.1476 145.398 31.2734 145.619C32.4028 145.848 33.5618 145.962 34.7724 145.962C36.0421 145.962 37.3044 145.863 38.5372 145.682C39.7699 145.49 41.0655 145.206 42.4237 144.833L35.2227 115.807H35.219ZM19.4624 175.217C17.735 175.519 16.1626 175.745 14.7379 175.892C13.3132 176.044 11.9254 176.114 10.5782 176.114C9.22367 176.114 7.66978 176.025 5.90551 175.833C4.14493 175.649 2.17766 175.368 0 174.992L25.2055 94.6509C27.158 94.422 28.9702 94.2375 30.6644 94.0825C32.3474 93.9348 34.0563 93.861 35.7837 93.861C37.2084 93.861 38.7623 93.9348 40.4454 94.0825C42.1358 94.2375 44.0736 94.422 46.2475 94.6509L71.1061 175.106C66.8319 175.778 63.0856 176.11 59.8561 176.11C58.3612 176.11 56.859 176.036 55.3568 175.889C53.8546 175.741 52.249 175.516 50.5217 175.213L46.2475 159.571C44.14 160.173 42.1358 160.623 40.2202 160.922C38.3046 161.224 36.4112 161.372 34.5399 161.372C32.8125 161.372 31.0519 161.247 29.2544 160.973C27.4532 160.715 25.5782 160.328 23.6257 159.8L19.466 175.213L19.4624 175.217Z" fill="#A6C022"/>
<path fill-rule="evenodd" clip-rule="evenodd" d="M130.999 46.2623C117.434 64.9569 124.842 84.6666 139.115 94.5546C155.148 105.653 185.569 104.875 195.354 66.3521C201.071 43.8927 198.982 16.015 196.018 0C193.471 5.55118 187.684 11.6228 180.793 16.7938C165.276 28.4277 141.78 31.4136 130.999 46.2549V46.2623Z" fill="#FF0068"/>
<path fill-rule="evenodd" clip-rule="evenodd" d="M161.287 89.0367C158.257 92.724 157.091 96.8837 157.227 100.733C157.615 112.017 168.514 117.988 178.72 115.682C184.227 114.43 189.575 110.278 192.561 100.899C196.056 89.941 195.842 76.0704 194.857 68.05C193.421 70.7222 190.383 73.5643 186.818 75.9228C178.786 81.223 167.06 82.0055 161.284 89.0404L161.287 89.0367Z" fill="#A6C022"/>
<path fill-rule="evenodd" clip-rule="evenodd" d="M157.23 100.685C171.754 101.483 187.85 93.2702 194.878 68.1718L194.859 68.05C193.423 70.7222 190.386 73.5643 186.82 75.9191C178.789 81.223 167.063 82.0018 161.286 89.0367C158.264 92.7092 157.097 96.8467 157.226 100.685H157.23Z" fill="#D1D87F"/>
</svg>
