<svg width="43" height="60" viewBox="0 0 43 60" fill="none" xmlns="http://www.w3.org/2000/svg">
<path d="M26.598 11.43C26.2481 10.8302 26.0122 10.4362 25.8902 10.2503C24.8545 8.67267 23.5228 7.41501 21.8932 6.48125C18.4961 4.53573 14.553 4.28179 10.724 4.37777C10.68 4.37977 10.64 4.35176 10.622 4.31177L8.93645 0.160799C8.92845 0.138804 8.93444 0.128822 8.95844 0.126823C11.9597 -0.0311378 14.873 -0.113121 17.7742 0.32277C20.1576 0.680681 22.597 1.46047 24.5306 2.95009C26.716 4.63368 28.6895 6.6112 30.2871 8.86464C30.977 9.8364 31.3928 10.6622 32.0607 11.9579C32.3986 12.6157 32.6465 13.1356 32.8005 13.5155C35.4358 20.0059 38.0692 26.4963 40.7045 32.9887C41.1604 34.1124 41.6123 35.2361 42.0582 36.3618C42.0662 36.3818 42.0582 36.4038 42.0382 36.4118C40.8905 37.0176 39.7388 37.6235 38.5831 38.2313C38.4711 38.2893 38.3791 38.3333 38.3071 38.3593C38.3051 38.3593 38.3011 38.3613 38.2991 38.3613C38.2911 38.3613 38.2831 38.3553 38.2791 38.3473L36.5276 34.3303C36.5216 34.3183 36.5096 34.3103 36.4976 34.3103C36.4816 34.3103 36.4676 34.3203 36.4656 34.3363C36.4436 34.4383 36.4116 34.5422 36.3696 34.6522C35.8097 36.1358 35.0919 37.5675 34.2121 38.9451C34.2061 38.9551 34.1941 38.9611 34.1821 38.9611C34.1702 38.9611 34.1582 38.9551 34.1522 38.9431C34.1222 38.8911 34.0922 38.8272 34.0622 38.7512C33.3064 36.8597 32.5506 34.9702 31.7928 33.0786C31.7388 32.9427 31.7228 32.8187 31.7448 32.7087C31.9067 31.8929 32.0567 31.0751 32.2166 30.2593C32.4246 29.1876 32.5206 28.0599 32.4166 26.9701C32.1027 23.645 30.5191 20.7177 28.0957 18.4502C27.1119 17.5305 26.0082 16.7907 24.7825 16.2308C24.7505 16.2168 24.7265 16.1928 24.7125 16.1608C24.5845 15.8629 24.4626 15.565 24.3426 15.265C23.6588 13.5475 22.9729 11.8279 22.2811 10.1063C22.2811 10.1043 22.2791 10.1023 22.2791 10.1003C22.2791 10.0923 22.2871 10.0864 22.2951 10.0864C22.2951 10.0864 22.2971 10.0864 22.2991 10.0864C23.5128 10.3103 24.6925 10.6502 25.8382 11.1081C26.0562 11.1961 26.3361 11.3321 26.586 11.444C26.606 11.452 26.61 11.448 26.6 11.43H26.598Z" fill="white"/>
<path d="M5.72747 41.8445C2.76021 38.9632 0.796701 35.1062 0.208847 30.9872C-0.0910779 28.8878 -0.091076 26.6583 0.360811 24.5768C1.01065 21.5916 2.43029 18.7903 4.42779 16.4768C8.21485 12.0919 13.5535 9.61653 19.3681 9.66651C19.4541 9.66651 19.54 9.67253 19.626 9.68052C19.64 9.68252 19.65 9.6905 19.656 9.70449L21.8115 14.9572C21.8155 14.9692 21.8115 14.9752 21.7995 14.9732C20.4158 14.8372 19.0202 14.7293 17.6325 14.7873C16.0449 14.8532 14.5473 15.2631 13.1396 16.0149C12.4778 16.3688 11.762 16.7927 11.2341 17.1167C10.7622 17.4066 10.3483 17.7165 9.99041 18.0464C8.61275 19.3121 7.44704 20.7857 6.48928 22.4633C6.05139 23.2291 5.74547 24.017 5.55952 24.8847C5.34757 25.8665 5.25758 26.7263 5.15161 27.812C5.09762 28.3479 5.13961 28.7458 5.2156 29.3616C5.53152 31.939 6.34732 34.4124 7.82895 36.5358C10.2683 40.029 14.2693 41.7106 18.4203 41.9285C19.4421 41.9825 20.5058 41.8625 21.5095 41.6686C24.1569 41.1567 26.5203 39.781 28.3818 37.8495C29.1037 37.1017 29.6095 36.4099 30.2174 35.662C30.2534 35.6161 30.2834 35.6221 30.3054 35.6761L32.5008 41.0107C32.5008 41.0127 32.5028 41.0147 32.5028 41.0187C32.5028 41.0247 32.5008 41.0287 32.4968 41.0327C28.3798 45.1917 22.5653 47.7731 16.6308 46.9852C12.9597 46.4974 9.68249 45.1037 6.79921 42.8043C6.48129 42.5523 6.12537 42.2324 5.72747 41.8465V41.8445Z" fill="white"/>
<path d="M8.59274 33.0386C8.58274 33.0366 8.57275 33.0286 8.57275 33.0166L8.56274 32.8826C8.56274 32.8726 8.56674 32.8606 8.57474 32.8546C8.70071 32.7426 8.88266 32.5947 9.1246 32.4107C9.33455 32.2488 9.76245 31.8849 10.4063 31.315C11.538 30.3153 12.5238 29.1916 13.3696 27.9399C14.1354 26.8061 14.6892 25.6084 14.9292 24.2768C15.2971 22.2253 15.515 20.0798 15.2391 18.0023C15.2151 17.8263 15.1951 17.6624 15.1791 17.5084C15.1751 17.4784 15.1951 17.4505 15.2231 17.4425C16.5568 17.0386 17.8504 16.9126 19.2341 16.9766C19.2681 16.9786 19.2881 16.9966 19.2941 17.0306C19.718 20.2838 19.1561 23.371 17.4665 26.1563C15.485 29.4215 12.1798 31.6649 8.62673 32.8726C8.59874 32.8826 8.58075 32.9086 8.58075 32.9386C8.58075 32.9626 8.59275 32.9826 8.61074 32.9966C8.62874 33.0086 8.65673 33.0066 8.69672 32.9926C10.9242 32.1848 13.2256 31.253 15.0731 29.7294C18.2623 27.1041 19.9039 22.7251 20.0619 18.6981C20.0759 18.3502 20.0759 17.7904 20.0599 17.0226C20.0599 17.0086 20.0659 17.0026 20.0799 17.0046C21.6095 17.1925 23.0511 17.6524 24.4048 18.3842C24.4248 18.3942 24.4348 18.4162 24.4328 18.4382C24.0369 21.9114 23.1491 25.1386 20.8997 27.8779C19.63 29.4235 17.9164 30.6132 16.1449 31.445C14.0234 32.4427 11.7899 32.9786 9.44453 33.0546C9.1566 33.0646 8.88667 33.0786 8.59274 33.0386Z" fill="white"/>
<path d="M8.26089 32.8505C8.2509 32.8465 8.24489 32.8405 8.24089 32.8325C7.57706 31.3729 7.24115 29.7333 7.33512 28.1277C7.59906 23.6308 10.4004 19.4398 14.5613 17.6523C14.5653 17.6503 14.5693 17.6503 14.5753 17.6503C14.5913 17.6503 14.6033 17.6603 14.6073 17.6763C14.9172 19.1959 15.0452 20.8375 14.8752 22.3831C14.6033 24.8725 13.7195 27.1139 12.2239 29.1054C11.1442 30.5431 9.8245 31.7488 8.36486 32.8165C8.36286 32.8185 8.35487 32.8245 8.34287 32.8385C8.32487 32.8565 8.29689 32.8605 8.26089 32.8505Z" fill="white"/>
<path d="M11.0401 36.7821C9.98432 35.7884 9.15053 34.5627 8.50469 33.261C8.50269 33.257 8.50269 33.253 8.50269 33.249C8.50269 33.235 8.51468 33.223 8.52868 33.223C12.6716 33.205 16.7466 32.0253 19.9798 29.378C22.5592 27.2625 24.3248 24.3172 24.9446 21.032C25.0566 20.4442 25.1365 19.8523 25.1865 19.2565C25.1985 19.1205 25.1985 18.9865 25.1885 18.8526C25.1885 18.8526 25.1885 18.8526 25.1885 18.8506C25.1885 18.8426 25.1965 18.8346 25.2045 18.8346C25.2085 18.8346 25.2125 18.8366 25.2145 18.8386C28.3078 21.416 30.5952 24.6951 30.2033 28.9341C29.9913 31.2335 29.2095 33.411 27.8359 35.2705C26.0303 37.7159 23.215 39.4294 20.1698 39.7514C19.9198 39.7774 19.6459 39.7894 19.35 39.7874C16.2787 39.7634 13.3155 38.9236 11.0401 36.7821Z" fill="white"/>
<path d="M21.3435 58.7623C19.9378 58.8722 18.6901 58.1884 18.2122 56.8268C17.8843 55.895 17.8423 54.8612 18.1423 53.9195C18.4382 52.9917 19.146 52.0579 20.0658 51.676C20.7736 51.3821 21.6334 51.4301 22.3312 51.754C22.3552 51.766 22.3852 51.766 22.4112 51.754L23.075 51.4561C23.083 51.4521 23.091 51.4501 23.101 51.4501C23.129 51.4501 23.153 51.4701 23.161 51.4961L23.6769 53.4996C23.6769 53.5016 23.6769 53.5036 23.6769 53.5056C23.6769 53.5176 23.6689 53.5276 23.6569 53.5316C23.5789 53.5536 23.5069 53.5915 23.4409 53.6415C23.4229 53.6555 23.403 53.6615 23.381 53.6615C23.347 53.6615 23.315 53.6455 23.297 53.6155C22.8271 52.9057 22.1773 51.868 21.2055 51.842C18.7081 51.774 18.8121 58.2224 21.8253 58.0004C22.6151 57.9425 23.201 57.2986 23.5689 56.6388C23.5749 56.6288 23.5869 56.6208 23.5989 56.6208C23.6009 56.6208 23.6029 56.6208 23.6049 56.6208C23.7029 56.6388 23.7929 56.6768 23.8768 56.7328C23.8888 56.7408 23.8928 56.7548 23.8888 56.7688C23.8528 56.8807 23.7988 57.0027 23.7249 57.1307C23.211 58.0345 22.4112 58.6763 21.3455 58.7603L21.3435 58.7623Z" fill="white"/>
<path d="M25.9128 58.0583C24.9591 57.1905 24.5312 56.1268 24.6292 54.8691C24.7591 53.2095 25.9168 51.6359 27.6704 51.5119C28.1363 51.4779 28.5682 51.5299 28.9681 51.6639C29.7939 51.9418 30.4937 52.6317 30.8536 53.4155C31.6154 55.0731 31.2275 57.0645 29.7399 58.1883C29.7299 58.1963 29.7259 58.2063 29.7259 58.2183C29.7259 58.2243 29.7279 58.2322 29.7319 58.2382C29.8879 58.4942 30.0638 58.7621 30.2958 58.9501C30.6437 59.228 30.8956 59.03 31.1975 58.8341C31.2115 58.8241 31.2275 58.8241 31.2415 58.8341C31.3115 58.8741 31.3615 58.9321 31.3955 59.0061C31.3995 59.0181 31.3995 59.0301 31.3935 59.042C31.0396 59.6939 30.3277 60.1398 29.5879 59.9598C28.9701 59.8099 28.6842 59.32 28.5222 58.7302C28.5142 58.6982 28.4802 58.6781 28.4482 58.6841C27.5384 58.8741 26.6367 58.7161 25.9189 58.0623L25.9128 58.0583ZM29.226 57.5604C29.228 57.5624 29.23 57.5644 29.234 57.5644C29.238 57.5644 29.242 57.5604 29.244 57.5564C29.5419 56.7886 29.6179 56.0408 29.6199 55.209C29.6219 54.2773 29.5479 52.5817 28.6242 52.0158C28.3782 51.8659 28.1143 51.8019 27.8324 51.8259C26.9406 51.8999 26.5327 52.7637 26.3787 53.5335C26.1228 54.8111 26.1388 56.2228 26.5927 57.4585C26.5947 57.4645 26.6007 57.4685 26.6087 57.4685C26.6167 57.4685 26.6227 57.4645 26.6247 57.4565C26.7506 57.0406 26.8986 56.7106 27.3645 56.6067C28.0003 56.4627 28.6082 56.8526 29.0101 57.3265C29.0741 57.4025 29.146 57.4805 29.224 57.5604H29.226ZM27.0606 58.0123C27.3525 58.4322 27.9124 58.4722 28.3562 58.2783C28.4182 58.2503 28.4202 58.2163 28.4202 58.1543C28.4162 57.6424 28.1703 56.9306 27.5304 57.0026C27.0406 57.0566 26.7826 57.6104 27.0606 58.0123Z" fill="white"/>
<path d="M6.27738 51.9301C6.26538 51.9281 6.25539 51.918 6.25539 51.904L6.2334 51.6461V51.6441C6.2334 51.6261 6.24739 51.6121 6.26539 51.6121C7.4091 51.5941 8.52283 51.5941 9.60656 51.6121C10.0185 51.6181 10.4783 51.6701 10.8622 51.7921C13.0237 52.4779 13.6775 55.3532 12.5338 57.1367C11.884 58.1505 10.9062 58.5744 9.71453 58.5984C8.56681 58.6204 7.41911 58.6184 6.27339 58.5924C6.2534 58.5924 6.2434 58.5824 6.24539 58.5604L6.26139 58.3125C6.26339 58.2885 6.28339 58.2665 6.30938 58.2665C6.97921 58.2365 7.13317 57.9725 7.13917 57.3427C7.15516 55.4592 7.15116 53.8616 7.12717 52.5519C7.11917 52.048 6.66929 52.0001 6.28138 51.9341L6.27738 51.9301ZM9.14868 52.022C8.62681 52.138 8.59082 52.4799 8.58682 52.9798C8.57482 54.5194 8.57882 56.061 8.59881 57.6006C8.60481 58.0485 8.82475 58.2145 9.25865 58.2325C9.81251 58.2545 10.4164 58.1325 10.8163 57.7226C11.5601 56.9608 11.5121 55.1593 11.4061 54.1835C11.3321 53.4877 11.3021 52.216 10.2164 52.04C9.8265 51.978 9.52858 51.9381 9.14868 52.022Z" fill="white"/>
<path d="M13.9551 51.9557C13.9351 51.9537 13.9211 51.9377 13.9171 51.9177L13.8871 51.6758C13.8811 51.6238 13.9051 51.5978 13.9571 51.5978L17.0903 51.6058C17.1223 51.6058 17.1463 51.6318 17.1463 51.6618C17.1463 51.6638 17.1463 51.6658 17.1463 51.6678L17.1203 51.9097C17.1163 51.9477 17.0963 51.9657 17.0564 51.9637C16.6804 51.9357 16.3205 52.0677 16.2805 52.4936C16.2585 52.7215 16.2485 52.8835 16.2485 52.9775C16.2445 54.855 16.2445 56.2567 16.2485 57.1824C16.2485 57.3444 16.2645 57.5363 16.2905 57.7543C16.3445 58.1881 16.7004 58.2382 17.0883 58.2761C17.1043 58.2781 17.1183 58.2901 17.1203 58.3081L17.1383 58.5701C17.1403 58.5881 17.1323 58.596 17.1143 58.596C16.0486 58.624 14.9809 58.622 13.9151 58.594C13.8971 58.594 13.8891 58.5841 13.8911 58.5681L13.9151 58.3141C13.9171 58.2861 13.9391 58.2661 13.9671 58.2661C14.1611 58.2601 14.543 58.2082 14.6569 58.0222C14.7589 57.8522 14.7549 57.5663 14.7589 57.3724C14.7729 56.2526 14.7789 55.1329 14.7749 54.0112C14.7749 53.5593 14.7689 53.0994 14.7529 52.6455C14.7469 52.4536 14.7229 52.3196 14.6849 52.2476C14.559 52.0077 14.2051 51.9857 13.9551 51.9577V51.9557Z" fill="white"/>
</svg>
