<svg width="84" height="120" viewBox="0 0 84 120" fill="none" xmlns="http://www.w3.org/2000/svg">
<path d="M52.9251 22.7433C52.2289 21.5498 51.7594 20.7659 51.5167 20.3959C49.4558 17.2568 46.8061 14.7543 43.5635 12.8963C36.8039 9.02516 28.9581 8.51987 21.3391 8.71084C21.2516 8.71482 21.172 8.65908 21.1362 8.57951L17.7823 0.319956C17.7664 0.276191 17.7783 0.25633 17.826 0.252351C23.7979 -0.0619577 29.5947 -0.225088 35.3676 0.642245C40.1101 1.35441 44.964 2.90602 48.8113 5.87007C53.1599 9.22004 57.0868 13.1549 60.2657 17.6388C61.6383 19.5724 62.4658 21.2155 63.7947 23.7936C64.467 25.1026 64.9604 26.137 65.2667 26.893C70.5105 39.8075 75.7503 52.722 80.9941 65.6405C81.9012 67.8765 82.8004 70.1124 83.6876 72.3524C83.7035 72.3921 83.6876 72.4359 83.6478 72.4518C81.3641 73.6573 79.0724 74.8629 76.7728 76.0724C76.55 76.1878 76.367 76.2752 76.2238 76.327C76.2198 76.327 76.2118 76.3309 76.2079 76.3309C76.1919 76.3309 76.176 76.319 76.1681 76.3031L72.6828 68.3101C72.6709 68.2863 72.647 68.2703 72.6232 68.2703C72.5913 68.2703 72.5635 68.2903 72.5595 68.3221C72.5157 68.525 72.4521 68.7318 72.3685 68.9506C71.2545 71.9028 69.8262 74.7514 68.0756 77.4927C68.0637 77.5126 68.0398 77.5245 68.0159 77.5245C67.9921 77.5245 67.9682 77.5126 67.9563 77.4887C67.8966 77.3852 67.8369 77.2579 67.7772 77.1068C66.2733 73.343 64.7694 69.5833 63.2615 65.8195C63.1541 65.549 63.1223 65.3023 63.166 65.0835C63.4883 63.4602 63.7867 61.833 64.105 60.2097C64.5188 58.0772 64.7097 55.8333 64.5029 53.6649C63.8782 47.0485 60.7272 41.2238 55.9051 36.7121C53.9476 34.882 51.7515 33.4099 49.3126 32.2959C49.2489 32.2681 49.2012 32.2203 49.1733 32.1566C48.9187 31.5638 48.676 30.971 48.4373 30.3742C47.0766 26.9566 45.712 23.535 44.3354 20.1095C44.3354 20.1055 44.3314 20.1015 44.3314 20.0975C44.3314 20.0816 44.3473 20.0697 44.3632 20.0697C44.3632 20.0697 44.3672 20.0697 44.3712 20.0697C46.7862 20.5153 49.1336 21.1916 51.4133 22.1027C51.847 22.2778 52.404 22.5484 52.9013 22.7712C52.9411 22.7871 52.949 22.7791 52.9291 22.7433H52.9251Z" fill="white"/>
<path d="M11.3965 83.2618C5.49223 77.5287 1.58527 69.854 0.415563 61.6581C-0.181226 57.4806 -0.181222 53.0445 0.717939 48.9028C2.01098 42.9627 4.83577 37.3887 8.81038 32.7855C16.3458 24.0604 26.9687 19.1349 38.5384 19.2344C38.7095 19.2344 38.8806 19.2464 39.0516 19.2623C39.0795 19.2662 39.0994 19.2821 39.1113 19.31L43.4002 29.7617C43.4082 29.7856 43.4002 29.7976 43.3764 29.7936C40.6232 29.523 37.8461 29.3082 35.085 29.4236C31.926 29.5549 28.946 30.3705 26.1451 31.8664C24.8282 32.5706 23.4039 33.4141 22.3535 34.0586C21.4146 34.6355 20.591 35.2522 19.8788 35.9086C17.1376 38.4271 14.818 41.3593 12.9123 44.6974C12.041 46.2212 11.4323 47.7888 11.0623 49.5155C10.6405 51.469 10.4615 53.1797 10.2506 55.3401C10.1432 56.4064 10.2268 57.1981 10.3779 58.4235C11.0066 63.5519 12.6298 68.4735 15.578 72.6987C20.4318 79.6493 28.393 82.9953 36.6526 83.429C38.6856 83.5364 40.8022 83.2977 42.7995 82.9117C48.0671 81.8932 52.7698 79.1559 56.4739 75.3126C57.9102 73.8246 58.9168 72.448 60.1262 70.96C60.1979 70.8685 60.2575 70.8805 60.3013 70.9879L64.6698 81.6028C64.6698 81.6067 64.6738 81.6107 64.6738 81.6187C64.6738 81.6306 64.6698 81.6386 64.6618 81.6466C56.4699 89.922 44.9002 95.0584 33.0917 93.4908C25.787 92.5201 19.2661 89.7469 13.529 85.1716C12.8964 84.6702 12.1882 84.0337 11.3965 83.2658V83.2618Z" fill="white"/>
<path d="M17.098 65.7398C17.0781 65.7359 17.0582 65.7199 17.0582 65.696L17.0383 65.4295C17.0383 65.4096 17.0463 65.3857 17.0622 65.3737C17.3129 65.1509 17.6749 64.8565 18.1563 64.4905C18.5741 64.1682 19.4255 63.4441 20.7066 62.3102C22.9585 60.3209 24.9199 58.085 26.6029 55.5944C28.1267 53.3386 29.2287 50.9554 29.7062 48.3056C30.4382 44.2236 30.8719 39.9545 30.3228 35.8208C30.2751 35.4706 30.2353 35.1444 30.2035 34.8381C30.1955 34.7784 30.2353 34.7227 30.291 34.7068C32.9447 33.9032 35.5189 33.6525 38.2721 33.7798C38.3397 33.7838 38.3795 33.8196 38.3914 33.8872C39.2349 40.3604 38.1169 46.5033 34.755 52.0455C30.8122 58.5425 24.2356 63.0065 17.1656 65.4096C17.1099 65.4295 17.0741 65.4812 17.0741 65.5409C17.0741 65.5886 17.098 65.6283 17.1338 65.6562C17.1696 65.6801 17.2253 65.6761 17.3049 65.6482C21.7371 64.0409 26.3164 62.1869 29.9926 59.1552C36.3385 53.9314 39.6049 45.2182 39.9192 37.2053C39.9471 36.513 39.9471 35.3991 39.9152 33.8713C39.9152 33.8434 39.9272 33.8315 39.955 33.8354C42.9986 34.2094 45.8672 35.1246 48.5607 36.5807C48.6005 36.6006 48.6204 36.6444 48.6164 36.6882C47.8287 43.599 46.0621 50.0204 41.5862 55.4711C39.0598 58.5465 35.6502 60.9137 32.1252 62.5688C27.9039 64.5541 23.4598 65.6204 18.7929 65.7716C18.22 65.7915 17.6829 65.8194 17.098 65.7398Z" fill="white"/>
<path d="M16.438 65.3657C16.4181 65.3578 16.4061 65.3459 16.3982 65.33C15.0773 62.4256 14.4089 59.1632 14.5959 55.9684C15.121 47.0205 20.695 38.6813 28.9745 35.1245C28.9824 35.1205 28.9904 35.1205 29.0023 35.1205C29.0342 35.1205 29.058 35.1404 29.066 35.1723C29.6827 38.196 29.9373 41.4624 29.5991 44.5379C29.058 49.4912 27.2995 53.9512 24.3235 57.9138C22.1751 60.7744 19.5492 63.1736 16.6448 65.2981C16.6409 65.3021 16.6249 65.3141 16.6011 65.3419C16.5653 65.3777 16.5096 65.3856 16.438 65.3657Z" fill="white"/>
<path d="M21.9678 73.1886C19.8671 71.2113 18.208 68.7724 16.9229 66.1823C16.9189 66.1743 16.9189 66.1664 16.9189 66.1584C16.9189 66.1306 16.9428 66.1067 16.9707 66.1067C25.2143 66.0709 33.3227 63.7236 39.7561 58.4559C44.8884 54.2466 48.4015 48.3861 49.6349 41.8493C49.8577 40.6796 50.0168 39.5019 50.1163 38.3162C50.1402 38.0457 50.1402 37.7791 50.1203 37.5126C50.1203 37.5126 50.1203 37.5125 50.1203 37.5086C50.1203 37.4927 50.1362 37.4768 50.1521 37.4768C50.1601 37.4768 50.168 37.4808 50.172 37.4848C56.3269 42.6132 60.8784 49.1381 60.0986 57.5727C59.6769 62.148 58.1212 66.4807 55.3879 70.1808C51.7953 75.0466 46.1934 78.4562 40.134 79.0968C39.6367 79.1485 39.0916 79.1724 38.5028 79.1685C32.3917 79.1207 26.4954 77.4497 21.9678 73.1886Z" fill="white"/>
<path d="M42.4696 116.925C39.6726 117.143 37.19 115.783 36.2391 113.073C35.5866 111.219 35.5031 109.162 36.0998 107.288C36.6887 105.442 38.0971 103.584 39.9272 102.825C41.3357 102.24 43.0465 102.335 44.435 102.98C44.4827 103.004 44.5424 103.004 44.5941 102.98L45.915 102.387C45.9309 102.379 45.9468 102.375 45.9667 102.375C46.0224 102.375 46.0702 102.415 46.0861 102.466L47.1126 106.453C47.1126 106.457 47.1126 106.461 47.1126 106.465C47.1126 106.489 47.0967 106.509 47.0728 106.517C46.9176 106.56 46.7744 106.636 46.6431 106.735C46.6073 106.763 46.5675 106.775 46.5237 106.775C46.4561 106.775 46.3924 106.743 46.3566 106.684C45.4217 105.271 44.1286 103.206 42.195 103.155C37.2258 103.019 37.4327 115.85 43.4284 115.409C44.9999 115.293 46.1657 114.012 46.8977 112.699C46.9097 112.679 46.9335 112.664 46.9574 112.664C46.9614 112.664 46.9654 112.664 46.9693 112.664C47.1643 112.699 47.3433 112.775 47.5104 112.886C47.5343 112.902 47.5423 112.93 47.5343 112.958C47.4627 113.181 47.3553 113.423 47.2081 113.678C46.1856 115.476 44.5941 116.754 42.4735 116.921L42.4696 116.925Z" fill="white"/>
<path d="M51.5612 115.524C49.6634 113.797 48.812 111.681 49.007 109.178C49.2656 105.876 51.5692 102.745 55.0584 102.498C55.9854 102.43 56.8448 102.534 57.6405 102.8C59.2837 103.353 60.6762 104.726 61.3923 106.286C62.9082 109.584 62.1363 113.547 59.1763 115.782C59.1564 115.798 59.1484 115.818 59.1484 115.842C59.1484 115.854 59.1524 115.87 59.1603 115.882C59.4707 116.391 59.8208 116.924 60.2823 117.298C60.9746 117.851 61.4759 117.457 62.0766 117.068C62.1045 117.048 62.1363 117.048 62.1642 117.068C62.3034 117.147 62.4029 117.263 62.4705 117.41C62.4785 117.434 62.4785 117.457 62.4666 117.481C61.7623 118.778 60.346 119.666 58.8739 119.308C57.6445 119.009 57.0755 118.034 56.7533 116.861C56.7374 116.797 56.6697 116.757 56.6061 116.769C54.7958 117.147 53.0015 116.833 51.5732 115.532L51.5612 115.524ZM58.1538 114.533C58.1577 114.537 58.1617 114.541 58.1697 114.541C58.1776 114.541 58.1856 114.533 58.1896 114.525C58.7824 112.998 58.9335 111.51 58.9375 109.854C58.9415 108 58.7943 104.627 56.9562 103.501C56.4668 103.202 55.9417 103.075 55.3807 103.123C53.6062 103.27 52.7946 104.989 52.4882 106.52C51.979 109.063 52.0108 111.872 52.914 114.33C52.9179 114.342 52.9299 114.35 52.9458 114.35C52.9617 114.35 52.9736 114.342 52.9776 114.326C53.2283 113.499 53.5227 112.842 54.4497 112.635C55.7149 112.349 56.9244 113.125 57.7241 114.068C57.8514 114.219 57.9946 114.374 58.1498 114.533H58.1538ZM53.8449 115.432C54.4258 116.268 55.5398 116.348 56.4231 115.962C56.5464 115.906 56.5504 115.838 56.5504 115.715C56.5424 114.696 56.0531 113.28 54.7799 113.423C53.8052 113.531 53.2919 114.633 53.8449 115.432Z" fill="white"/>
<path d="M12.4911 103.33C12.4672 103.326 12.4473 103.306 12.4473 103.278L12.4036 102.765V102.761C12.4036 102.725 12.4314 102.697 12.4672 102.697C14.743 102.661 16.959 102.661 19.1154 102.697C19.935 102.709 20.8501 102.813 21.614 103.055C25.9148 104.42 27.2159 110.141 24.9401 113.69C23.6471 115.707 21.7015 116.551 19.3303 116.598C17.0466 116.642 14.7629 116.638 12.4831 116.586C12.4434 116.586 12.4235 116.567 12.4274 116.523L12.4593 116.03C12.4632 115.982 12.503 115.938 12.5548 115.938C13.8876 115.878 14.1939 115.353 14.2059 114.1C14.2377 110.352 14.2297 107.173 14.182 104.567C14.1661 103.565 13.2709 103.469 12.499 103.338L12.4911 103.33ZM18.2044 103.513C17.1659 103.744 17.0943 104.424 17.0864 105.419C17.0625 108.482 17.0705 111.55 17.1102 114.613C17.1222 115.504 17.5598 115.835 18.4232 115.87C19.5252 115.914 20.7268 115.671 21.5225 114.856C23.0025 113.34 22.907 109.755 22.6962 107.814C22.549 106.429 22.4893 103.899 20.3289 103.549C19.5531 103.425 18.9603 103.346 18.2044 103.513Z" fill="white"/>
<path d="M27.7684 103.381C27.7286 103.377 27.7008 103.345 27.6928 103.305L27.6331 102.824C27.6212 102.721 27.669 102.669 27.7724 102.669L34.0069 102.685C34.0705 102.685 34.1183 102.736 34.1183 102.796C34.1183 102.8 34.1183 102.804 34.1183 102.808L34.0665 103.29C34.0586 103.365 34.0188 103.401 33.9392 103.397C33.1912 103.341 32.4751 103.604 32.3955 104.451C32.3518 104.905 32.3319 105.227 32.3319 105.414C32.3239 109.15 32.3239 111.939 32.3319 113.781C32.3319 114.103 32.3637 114.485 32.4154 114.919C32.5228 115.782 33.231 115.882 34.0029 115.957C34.0347 115.961 34.0626 115.985 34.0665 116.021L34.1023 116.542C34.1063 116.578 34.0904 116.594 34.0546 116.594C31.934 116.65 29.8094 116.646 27.6888 116.59C27.653 116.59 27.6371 116.57 27.6411 116.538L27.6888 116.033C27.6928 115.977 27.7366 115.937 27.7923 115.937C28.1782 115.926 28.9381 115.822 29.1649 115.452C29.3678 115.114 29.3599 114.545 29.3678 114.159C29.3957 111.931 29.4076 109.703 29.3996 107.471C29.3996 106.572 29.3877 105.657 29.3559 104.754C29.3439 104.372 29.2962 104.105 29.2206 103.962C28.97 103.484 28.2657 103.441 27.7684 103.385V103.381Z" fill="white"/>
</svg>
