<svg width="109" height="120" viewBox="0 0 109 120" fill="none" xmlns="http://www.w3.org/2000/svg">
<path fill-rule="evenodd" clip-rule="evenodd" d="M80.9332 46.5654C80.9332 44.1583 81.1202 39.2289 81.9875 37.538C83.6346 34.3352 90.251 33.9652 92.7297 36.6348C95.2919 39.396 94.4922 51.3716 93.6288 53.2893C93.2549 54.1208 92.9525 54.4788 92.292 55.0637C91.8146 55.4854 90.7961 55.8833 90.064 56.0743C88.1662 56.5676 86.0934 56.3606 84.5218 55.7957C82.8548 55.1949 82.0114 54.1725 81.6891 52.2747C81.3827 50.4485 80.9292 48.6621 80.9292 46.5614L80.9332 46.5654ZM86.909 66.2395C91.5082 66.2395 93.1395 66.0128 97.3528 64.6043C102.207 62.9851 105.843 59.46 107.466 54.5504C109.388 48.7536 109.456 42.6028 107.53 36.7781C107.072 35.3975 106.539 34.3074 105.835 33.2451C104.657 31.4746 103.05 29.7757 101.188 28.6777C97.5716 26.5491 94.4564 25.6022 90.2391 25.0611L87.657 24.902C83.75 24.902 78.4625 26.1354 75.1244 27.9297C74.1258 28.4668 72.8208 29.3381 72.0609 30.098C71.0782 31.0847 70.4257 31.7014 69.63 32.895C68.9218 33.9573 68.3409 35.1389 67.8794 36.3723C67.0718 38.5406 66.7614 40.4861 66.467 42.8056C66.3795 43.4979 66.4113 44.4886 66.292 45.2485C66.0731 46.657 66.6898 50.5877 67.0359 52.1195C67.2269 52.9749 67.3781 53.4046 67.6248 54.1446C68.2017 55.8793 68.8621 57.0092 69.8249 58.4176C70.0358 58.7279 70.1591 58.907 70.3979 59.2133C71.309 60.387 73.3619 62.0859 74.6191 62.8379C75.6973 63.4784 76.879 64.1071 78.1442 64.5447C79.5685 65.038 80.6666 65.404 82.2063 65.7104C83.6426 65.9969 85.2459 66.2395 86.905 66.2395H86.909Z" fill="white"/>
<path fill-rule="evenodd" clip-rule="evenodd" d="M27.3931 37.3505C27.3931 39.6939 28.1729 42.626 29.7285 44.3567C30.003 44.6631 30.0627 44.8063 30.3492 45.1047C31.2603 46.0516 32.1753 46.7638 33.2933 47.5118C34.1805 48.1046 35.9669 48.9918 37.0053 49.2783C37.7414 49.4812 38.3342 49.704 38.9867 49.9109C39.7068 50.1377 40.419 50.3206 41.1033 50.5315C43.3154 51.2079 50.1029 53.1813 51.4596 53.7462C56.3811 55.7992 48.3045 59.3998 40.2121 55.282C38.7082 54.5181 37.0372 52.9903 36.0903 51.558C35.8834 51.2477 35.8675 50.9175 35.4855 50.9175H27.8904V65.3597H36.4802V62.6225C38.6803 63.1357 41.1113 66.2351 50.7991 66.2351C54.4395 66.2351 58.6011 64.7908 61.223 62.5866C65.5676 58.9343 66.3992 51.9678 63.2282 47.3328C62.9259 46.8912 62.5638 46.3858 62.2177 45.976C58.9353 42.0969 54.1491 41.1221 49.4544 39.8132C47.6043 39.296 41.5569 37.5972 40.4667 36.9725C39.9893 36.702 39.476 36.324 39.5039 35.6197C39.5516 34.5336 41.2028 33.8612 42.456 33.8612C52.9316 33.8612 55.0522 39.4631 55.9036 39.4631H63.8728V26.2661H55.7803C55.271 26.2661 55.5416 26.3139 55.4541 26.5247C55.4103 26.6322 55.4302 26.6838 55.4262 26.7714L55.5336 28.2554C55.0443 28.2156 52.486 26.9704 51.5153 26.5486C45.8577 24.0899 36.6751 24.4081 31.678 28.1838C28.9447 30.2487 27.3931 34.0084 27.3931 37.3465V37.3505Z" fill="white"/>
<path fill-rule="evenodd" clip-rule="evenodd" d="M0 35.1101H5.72518V55.7789H0V65.3673H25.1487V55.7789H19.7975C19.511 55.7789 19.4235 55.6913 19.4235 55.4049V35.1101H25.1487V25.5217H0V35.1101Z" fill="white"/>
<path fill-rule="evenodd" clip-rule="evenodd" d="M52.6689 85.1603C54.6263 85.1603 56.8305 85.5661 58.3503 86.0793C58.7999 86.2305 59.1222 86.326 59.5558 86.4931C60.3118 86.7875 62.4284 87.8299 62.7546 88.2755C56.2417 89.7914 49.2433 89.7993 42.7105 88.2755C43.4226 87.3048 47.6837 85.7571 49.6094 85.4626C50.5165 85.3234 51.7419 85.1603 52.6689 85.1603ZM64.9946 87.6509C64.6922 87.6509 63.4827 86.4772 62.7546 86.2823C62.9456 86.0197 63.9323 85.6138 64.3023 85.4626C65.0065 85.1722 65.3049 84.9971 65.8738 84.6669C68.1933 83.3261 69.3829 82.5941 71.5592 80.7639L74.0856 78.4365C75.5259 79.2004 76.5484 79.8926 77.8494 80.7719C78.1557 80.9788 78.2114 80.9111 78.3188 81.301C77.8852 81.4164 77.2446 81.9336 76.8508 82.1962L73.7514 84.0781C73.1944 84.3884 72.6374 84.6391 72.0924 84.9097C70.9067 85.5025 66.0728 87.6509 64.9946 87.6509ZM31.5028 78.4365L33.9417 80.7321C35.8156 82.1963 37.1802 83.4376 39.5157 84.6192C40.1363 84.9335 40.387 85.1484 41.0753 85.4269L42.7105 86.1549L40.5939 87.6509C39.1258 87.6509 33.4165 84.9972 31.7932 84.1259C31.4551 83.9429 31.3277 83.8354 31.0055 83.6683C30.6872 83.5052 30.536 83.4376 30.2058 83.2227L27.1423 81.305C27.2895 80.756 28.7217 80.0438 29.1833 79.7375C29.6766 79.4073 30.9736 78.5638 31.4988 78.4444L31.5028 78.4365ZM58.772 84.5357C58.971 84.2373 59.4683 83.907 59.7985 83.5728C63.3156 80.012 63.5265 79.0173 65.7425 74.8239C67.0634 75.4565 69.3352 75.9061 72.4663 77.5652C71.9571 78.3251 68.9811 80.7042 68.0581 81.3726C67.513 81.7665 66.9878 82.1166 66.407 82.4628C65.2691 83.1391 62.0146 84.8858 60.817 85.0887C60.2919 85.1762 59.5519 84.5555 58.772 84.5396V84.5357ZM32.9987 77.5652C34.0411 77.0122 35.1352 76.5347 36.2532 76.0891C36.854 75.8503 37.3314 75.6395 37.96 75.4326C38.4574 75.2695 39.261 75.0467 39.7186 74.8279C41.867 78.89 42.2887 80.1632 45.5989 83.5132C46.0047 83.923 46.4066 84.1178 46.6891 84.5396C44.7992 84.6987 46.0087 86.1231 40.7928 83.4614C38.9786 82.5344 37.4428 81.4204 35.8554 80.1791C35.3461 79.7812 33.2892 78.0068 32.9908 77.5652H32.9987ZM53.5442 83.541V72.8346C55.247 72.8346 60.0571 73.4035 61.6088 73.7338C62.2971 73.881 63.4151 74.2669 64.1272 74.3266C63.8368 74.9313 63.6896 75.4127 63.3275 76.0175C62.9734 76.6063 62.7188 77.1514 62.3926 77.6964C61.1274 79.8091 59.6752 81.7148 57.6899 83.2028C56.0109 84.4601 56.4525 83.541 53.5442 83.541ZM41.3418 74.3266C42.0262 74.3107 43.0685 73.9447 43.7807 73.7776C44.5804 73.5946 45.5393 73.4274 46.331 73.3399C47.2819 73.2364 48.0139 73.1688 49.0404 73.0614C49.5417 73.0097 51.6066 72.9858 51.9249 72.8306V83.5371C50.6358 83.5371 49.12 83.9747 48.6863 83.7877C48.563 83.7359 48.0458 83.366 47.8667 83.2347C47.0471 82.6459 45.8655 81.5318 45.2528 80.7441C42.8816 77.7084 43.0168 77.4895 41.3418 74.3226V74.3266ZM51.5509 91.0088C56.2496 91.0088 59.0227 90.8537 63.5066 89.7635C66.6974 88.9877 69.9161 87.8339 72.8443 86.4016C73.3058 86.1788 73.5684 85.9759 74.0419 85.7332L78.6212 82.9641L85.5042 77.1474L87.2548 75.1621C88.3051 73.9805 88.7308 73.332 89.6658 72.0946C90.0119 71.6371 91.0066 70.348 91.1418 69.8347H89.2719C88.7746 70.7777 87.8794 71.8002 87.2428 72.6635L83.7616 76.6541C83.2881 77.1275 82.9062 77.3742 82.4526 77.8357L79.8068 80.1711C77.9886 78.9536 77.3202 78.3051 75.1996 77.1832L77.7897 73.6741C78.2114 73.0495 78.5616 72.5243 78.9873 71.8838C79.2379 71.5018 80.0257 70.2167 80.0535 69.8387H78.3109C77.6982 70.9965 74.754 75.5281 73.5804 76.3119C72.0327 75.4923 68.1774 73.7497 66.3592 73.324L67.2146 70.9408C67.696 69.5204 67.8512 69.8387 65.8619 69.8387C65.7863 70.7458 65.094 71.8519 64.8672 72.8266L59.4802 71.7405L53.5402 71.2074V69.8387H51.9209V71.2074L45.9809 71.7405C45.1374 71.8837 44.1507 72.0349 43.2356 72.2338L40.5899 72.8266C40.5501 72.3532 39.8379 70.8811 39.5952 69.8387H37.976C37.9919 70.6225 38.9109 72.5243 39.0979 73.324C38.4255 73.4791 37.8685 73.7338 37.2439 73.9606C35.1074 74.7364 33.9218 75.2297 31.8768 76.3119C31.1925 75.8543 29.8278 73.9088 29.3345 73.2524C28.5626 72.2299 27.743 70.9607 27.1462 69.8387H25.4036C25.5986 70.6702 27.1025 72.8306 27.6197 73.5985L28.8729 75.3332C29.1037 75.6236 29.2987 75.8623 29.5413 76.1607C29.7721 76.4432 30.0864 76.8013 30.2575 77.0599C29.9233 77.5174 26.3266 79.4191 25.7776 80.1711L24.3771 79.081C23.9116 78.6632 23.5098 78.3449 23.0682 77.8993C19.9092 74.7125 18.7793 73.7019 16.1892 69.8387H14.3232C14.4346 70.2485 14.7291 70.5907 14.9797 70.9249C16.2529 72.6197 17.4663 74.5295 18.9583 76.0374C19.2845 76.3676 19.5829 76.6223 19.8893 76.9764L24.6238 81.3329C27.0507 83.1352 27.4963 83.4535 30.0546 84.9932C32.6526 86.5568 33.7109 86.8114 36.1975 87.9373C37.1126 88.3511 37.9958 88.554 38.9427 88.928C41.867 90.0857 48.4198 91.0048 51.5549 91.0048L51.5509 91.0088Z" fill="white"/>
<path fill-rule="evenodd" clip-rule="evenodd" d="M53.5396 18.4249V7.84188C56.3605 7.60714 56.5833 7.05412 57.6495 7.84188C59.5075 9.21449 61.2263 11.4066 62.384 13.4397C62.762 14.0962 64.0551 16.1531 64.1227 16.9329C63.7487 17.1119 62.2846 17.3745 61.7077 17.5058C59.2131 18.0747 56.074 18.4249 53.5396 18.4249ZM52.6246 0H53.0145C53.5198 0.0318287 53.8301 0.131321 54.5343 0.127342C55.2584 0.123363 55.7716 0.143245 56.3127 0.214859C60.4664 0.751969 61.4093 0.692333 65.7857 1.94957C69.7524 3.09142 73.731 5.00908 77.2202 7.1973L80.5026 9.51685C82.0622 10.6826 82.3566 11.0884 83.5143 12.1109C86.5739 14.8044 88.8655 17.7724 91.1413 21.1702H89.148C88.969 20.4938 86.5142 17.5695 86.0169 16.9528C85.5872 16.4237 85.3445 16.2088 84.879 15.7234C84.5965 15.433 84.5726 15.3216 84.322 15.0351L81.2187 12.1626C80.8248 11.8324 80.3116 11.3311 79.9336 11.0804C78.4098 12.0989 76.9974 13.1851 75.3264 14.0683C75.7481 14.697 76.1539 15.1346 76.6274 15.7592C78.7201 18.5323 78.6684 18.9063 80.1843 21.1662H78.3183C77.6181 19.8413 74.7177 15.5324 73.8344 14.9396L70.2617 16.5948C69.637 16.8693 69.0044 17.092 68.3718 17.3188C67.7273 17.5535 67.2459 17.7485 66.49 17.9275L67.6119 21.1662H65.8693C65.8375 20.7683 65.0537 18.767 64.8747 18.4249C64.3813 18.6636 62.9649 18.9183 62.2846 19.0734C59.5593 19.6981 56.5037 20.0442 53.5436 20.0442V21.1662H51.9243V20.0442C49.2865 20.0442 42.511 19.3439 40.5933 18.4249C40.275 19.0933 39.7777 20.3943 39.5987 21.1662H37.856C38.047 20.7643 38.9422 18.3493 38.978 17.9275L31.6335 14.9396L29.7636 17.1796C28.6018 18.7989 28.0966 19.7498 27.1497 21.1662H25.407C25.5781 20.4262 27.1059 18.2498 27.5992 17.5058C28.5541 16.0695 29.9188 14.5219 30.1376 14.1917L25.5304 11.0804C24.671 11.8244 23.7599 12.5286 22.9483 13.3522C22.4788 13.8296 22.0929 14.0524 21.6393 14.5298C20.2388 16.0019 18.4286 18.1185 17.2629 19.7418C16.9565 20.1675 16.4473 20.6848 16.3199 21.1622H14.3267C15.6038 19.2525 17.5652 16.4793 19.2164 14.8441C19.5983 14.4662 19.7176 14.2155 20.0837 13.8455L22.0173 12.0432C23.1711 10.8735 25.8248 8.80067 27.2014 7.88957C30.6906 5.57403 33.1772 4.36057 37.0762 2.82484C37.9595 2.47472 39.0019 2.12855 39.8772 1.88983C44.731 0.568938 45.0652 0.803749 49.3661 0.175132L52.6325 0H52.6246ZM51.9204 8.09249V18.4249C49.1433 18.4249 46.4538 18.0867 43.8359 17.5456C43.259 17.4263 41.775 17.1438 41.3373 16.9329C41.7551 15.1425 44.5878 10.9252 45.7854 9.67596C46.2946 9.1468 48.0134 7.41613 48.646 7.4042C48.9921 7.40022 50.1618 7.70658 50.9257 7.71454C51.435 7.7225 51.9164 7.56333 51.9164 8.09249H51.9204ZM59.0182 6.72387C61.3019 6.5329 59.4956 5.3353 62.949 6.77555C65.4993 7.83783 69.3068 10.3205 71.2483 12.2979C71.7656 12.827 72.3862 13.0657 72.5891 13.8216C72.0321 13.8694 67.417 16.2963 65.742 16.4356C65.6982 15.8945 64.7473 14.1319 64.445 13.6227C61.1228 8.02083 59.4956 7.43206 59.0182 6.72387ZM39.718 16.4356C38.4449 16.3282 34.0923 14.3429 32.8709 13.6944C34.3469 11.4942 39.5867 8.03282 42.4235 6.81139C45.8729 5.3234 44.19 6.53688 46.4458 6.72387C46.1713 7.12969 45.7774 7.32461 45.4154 7.68666C45.0374 8.06463 44.7112 8.33914 44.3809 8.76883C43.072 10.4557 42.0734 11.5897 41.0509 13.6545C40.6172 14.5298 39.9567 15.433 39.722 16.4356H39.718ZM63.0007 4.85794C63.6134 4.71471 64.2978 4.11792 64.7752 3.75984C65.3521 3.33016 65.8375 3.65637 66.9395 4.03036C67.6915 4.28499 68.2684 4.54358 69.0243 4.81015C71.0017 5.5064 73.2058 6.78356 74.9524 7.7225C75.5691 8.05273 78.2944 9.68395 78.4377 10.2131L74.2044 12.827C73.365 12.266 71.6184 10.0181 67.6557 7.42013C67.1225 7.07001 66.7128 6.87508 66.1637 6.54884L63.7805 5.3234C63.3111 5.12845 63.2713 5.23193 63.0007 4.85794ZM31.2516 12.827L27.0184 10.2131C27.2093 9.49696 31.5619 7.12174 32.2502 6.73184L33.2488 6.2385C34.4146 5.58601 37.1677 4.50385 38.425 4.0662C39.3838 3.732 40.1159 3.33804 40.6291 3.68816C41.206 4.08204 41.7431 4.69482 42.4553 4.86192C42.1967 5.21602 42.2365 5.10057 41.763 5.29154C38.8825 6.44931 34.7488 9.38955 32.5247 11.6176C32.0911 12.0512 31.737 12.5047 31.2476 12.831L31.2516 12.827ZM42.4553 2.86466L46.5692 2.1246C51.1565 1.49598 56.3843 1.59151 60.9159 2.45884C61.5923 2.58615 62.3681 2.81294 63.0007 2.86466C61.9981 4.36061 56.3525 6.10319 53.5396 6.10319C51.3713 6.10319 49.8913 6.08725 47.8105 5.48251L46.5811 5.09261C45.5785 4.73454 42.9447 3.59673 42.4553 2.86864V2.86466Z" fill="white"/>
<path fill-rule="evenodd" clip-rule="evenodd" d="M29.7612 109.812C24.2707 109.812 25.4961 103.793 26.5584 102.5C28.2016 100.49 31.2929 100.761 32.5939 102.372C34.1575 104.306 33.9506 109.812 29.7612 109.812ZM23.0374 105.082C23.0374 107.119 23.2761 108.778 24.5611 110.158C26.7852 112.546 31.1099 112.856 33.4533 110.393C33.7835 110.047 33.4453 110.214 33.8671 110.063C33.8671 112.355 32.5979 117.284 29.3872 117.284C27.2944 117.284 25.7746 116.086 25.7746 114.045H23.284C23.284 118.828 28.6432 120.467 32.1284 118.657C36.0434 116.62 37.0579 109.701 36.1826 104.759C35.9877 103.645 35.7211 102.913 35.2835 102.05C33.4652 98.4573 28.5318 97.8048 25.4205 100.116C24.2667 100.976 23.0374 103.092 23.0374 105.082Z" fill="white"/>
<path fill-rule="evenodd" clip-rule="evenodd" d="M41.4615 110.063C41.4615 107.512 41.4496 103.665 43.4031 101.918C44.6404 100.808 46.5581 100.784 47.8313 101.95C47.9984 102.101 48.3087 102.527 48.436 102.714C48.6469 103.024 48.7185 103.239 48.8935 103.629C49.9797 106.048 49.9638 112.195 48.8736 114.61C47.33 118.024 43.6975 117.745 42.3328 114.67C41.9032 113.707 41.4615 111.467 41.4615 110.063ZM38.7203 108.817C38.7203 111.881 39.0943 114.069 40.256 116.249C40.7812 117.232 41.378 117.849 42.2771 118.461C42.5914 118.676 42.5835 118.648 42.9257 118.808C44.7558 119.671 46.9719 119.54 48.7225 118.573C49.6057 118.083 50.1786 117.427 50.7237 116.591C51.0141 116.15 51.1733 115.756 51.4001 115.278C51.6149 114.825 51.7541 114.26 51.9014 113.79C52.9557 110.425 52.9358 101.612 48.4718 99.4398C46.586 98.5247 43.789 98.5486 42.0583 99.8376C39.516 101.731 38.7163 105.364 38.7163 108.821L38.7203 108.817Z" fill="white"/>
<path fill-rule="evenodd" clip-rule="evenodd" d="M61.5089 117.034C55.8712 117.034 56.655 104.513 59.1058 102.058C61.1071 100.053 65.6148 100.411 65.6148 109.064C65.6148 111.865 65.0896 117.034 61.5049 117.034H61.5089ZM54.5344 109.064C54.5344 112.677 55.5012 117.925 59.4679 119.075C61.2662 119.596 63.0804 119.441 64.6957 118.478C66.5776 117.356 67.5205 115.076 67.9303 112.999L68.364 109.064L67.9502 105.237C67.8229 104.604 67.6877 104.135 67.5007 103.57C66.5498 100.689 64.7435 98.8593 61.493 98.7837C58.9865 98.7241 57.2717 99.9296 56.0821 101.895C55.4614 102.925 55.2705 103.797 54.9601 105.13C54.7174 106.176 54.5384 107.859 54.5384 109.064H54.5344Z" fill="white"/>
<path fill-rule="evenodd" clip-rule="evenodd" d="M72.2161 102.591V104.585H76.9467V118.78H79.5606V99.1062C79.5606 98.573 79.0832 98.7322 77.9413 98.7322C77.5355 98.7322 77.5594 99.0266 77.452 99.3647C77.3286 99.7546 77.2888 99.9019 77.1138 100.272C76.7915 100.948 76.6363 101.163 76.1072 101.633C75.2796 102.365 73.3102 102.595 72.2122 102.595L72.2161 102.591Z" fill="white"/>
</svg>
