<svg width="55" height="60" viewBox="0 0 55 60" fill="none" xmlns="http://www.w3.org/2000/svg">
<path fill-rule="evenodd" clip-rule="evenodd" d="M40.6744 23.4022C40.6744 22.1925 40.7684 19.7151 41.2043 18.8653C42.0321 17.2557 45.3573 17.0698 46.6029 18.4114C47.8906 19.7991 47.4887 25.8176 47.0548 26.7814C46.8669 27.1993 46.7149 27.3792 46.383 27.6731C46.1431 27.8851 45.6312 28.085 45.2633 28.181C44.3095 28.4289 43.2678 28.3249 42.478 28.041C41.6402 27.7391 41.2163 27.2252 41.0543 26.2715C40.9004 25.3537 40.6724 24.4559 40.6724 23.4002L40.6744 23.4022ZM43.6777 33.2897C45.9891 33.2897 46.8089 33.1758 48.9264 32.4679C51.3658 31.6541 53.1933 29.8826 54.0091 27.4152C54.9749 24.5019 55.0089 21.4107 54.0411 18.4834C53.8112 17.7896 53.5432 17.2417 53.1893 16.7078C52.5975 15.8181 51.7897 14.9643 50.8539 14.4124C49.0363 13.3427 47.4707 12.8668 45.3513 12.5949L44.0536 12.5149C42.0901 12.5149 39.4327 13.1348 37.7552 14.0365C37.2533 14.3065 36.5974 14.7443 36.2155 15.1263C35.7217 15.6221 35.3937 15.9321 34.9938 16.5319C34.6379 17.0658 34.346 17.6596 34.1141 18.2795C33.7082 19.3692 33.5522 20.3469 33.4042 21.5127C33.3603 21.8606 33.3762 22.3585 33.3163 22.7404C33.2063 23.4482 33.5162 25.4237 33.6902 26.1935C33.7861 26.6234 33.8621 26.8393 33.9861 27.2112C34.276 28.083 34.6079 28.6509 35.0918 29.3587C35.1978 29.5147 35.2598 29.6046 35.3797 29.7586C35.8376 30.3484 36.8694 31.2023 37.5012 31.5802C38.0431 31.9021 38.6369 32.218 39.2728 32.438C39.9886 32.6859 40.5405 32.8698 41.3143 33.0238C42.0361 33.1678 42.8419 33.2897 43.6757 33.2897H43.6777Z" fill="white"/>
<path fill-rule="evenodd" clip-rule="evenodd" d="M13.7668 18.771C13.7668 19.9487 14.1588 21.4223 14.9406 22.2921C15.0785 22.4461 15.1085 22.5181 15.2525 22.668C15.7104 23.1439 16.1703 23.5019 16.7321 23.8778C17.178 24.1757 18.0758 24.6216 18.5976 24.7655C18.9676 24.8675 19.2655 24.9795 19.5934 25.0835C19.9553 25.1974 20.3132 25.2894 20.6571 25.3953C21.7689 25.7353 25.18 26.727 25.8618 27.011C28.3352 28.0427 24.2762 29.8523 20.2092 27.7828C19.4534 27.3989 18.6136 26.6311 18.1378 25.9112C18.0338 25.7553 18.0258 25.5893 17.8338 25.5893H14.0168V32.8475H18.3337V31.4719C19.4394 31.7298 20.6611 33.2874 25.5299 33.2874C27.3595 33.2874 29.4509 32.5616 30.7686 31.4538C32.9521 29.6183 33.37 26.1172 31.7764 23.7878C31.6244 23.5658 31.4424 23.3119 31.2685 23.1059C29.6189 21.1564 27.2135 20.6665 24.8541 20.0087C23.9243 19.7488 20.8851 18.895 20.3372 18.5811C20.0973 18.4451 19.8393 18.2551 19.8533 17.9012C19.8773 17.3554 20.7071 17.0175 21.337 17.0175C26.6017 17.0175 27.6674 19.8328 28.0953 19.8328H32.1003V13.2004H28.0333C27.7774 13.2004 27.9133 13.2244 27.8693 13.3304C27.8473 13.3844 27.8573 13.4103 27.8553 13.4543L27.9093 14.2001C27.6634 14.1801 26.3777 13.5543 25.8898 13.3424C23.0465 12.1067 18.4317 12.2666 15.9203 14.1642C14.5467 15.2019 13.7668 17.0914 13.7668 18.769V18.771Z" fill="white"/>
<path fill-rule="evenodd" clip-rule="evenodd" d="M0 17.6451H2.87728V28.0325H0V32.8513H12.6388V28.0325H9.94952C9.80555 28.0325 9.76156 27.9885 9.76156 27.8445V17.6451H12.6388V12.8263H0V17.6451Z" fill="white"/>
<path fill-rule="evenodd" clip-rule="evenodd" d="M26.4694 42.7985C27.4532 42.7985 28.5609 43.0025 29.3247 43.2604C29.5507 43.3364 29.7126 43.3844 29.9306 43.4684C30.3105 43.6163 31.3742 44.1402 31.5382 44.3642C28.265 45.126 24.7479 45.13 21.4647 44.3642C21.8226 43.8763 23.9641 43.0985 24.9318 42.9505C25.3877 42.8805 26.0036 42.7985 26.4694 42.7985ZM32.6639 44.0502C32.5119 44.0502 31.9041 43.4604 31.5382 43.3624C31.6342 43.2304 32.13 43.0265 32.316 42.9505C32.6699 42.8045 32.8199 42.7166 33.1058 42.5506C34.2715 41.8768 34.8693 41.5088 35.9631 40.5891L37.2328 39.4194C37.9566 39.8033 38.4704 40.1512 39.1243 40.5931C39.2782 40.697 39.3062 40.6631 39.3602 40.859C39.1423 40.917 38.8204 41.1769 38.6224 41.3089L37.0648 42.2547C36.7849 42.4106 36.5049 42.5366 36.231 42.6726C35.6352 42.9705 33.2058 44.0502 32.6639 44.0502ZM15.8321 39.4194L17.0578 40.5731C17.9996 41.3089 18.6854 41.9328 19.8591 42.5266C20.171 42.6846 20.297 42.7926 20.6429 42.9325L21.4647 43.2984L20.401 44.0502C19.6631 44.0502 16.7939 42.7166 15.9781 42.2787C15.8081 42.1867 15.7441 42.1327 15.5822 42.0487C15.4222 41.9667 15.3462 41.9328 15.1803 41.8248L13.6406 40.861C13.7146 40.5851 14.4344 40.2272 14.6664 40.0732C14.9143 39.9073 15.5662 39.4834 15.8301 39.4234L15.8321 39.4194ZM29.5367 42.4846C29.6367 42.3347 29.8866 42.1687 30.0525 42.0007C31.8201 40.2112 31.9261 39.7113 33.0398 37.6038C33.7036 37.9218 34.8454 38.1477 36.419 38.9815C36.163 39.3634 34.6674 40.5591 34.2035 40.895C33.9296 41.093 33.6656 41.2689 33.3737 41.4429C32.8019 41.7828 31.1663 42.6606 30.5644 42.7626C30.3005 42.8065 29.9286 42.4946 29.5367 42.4866V42.4846ZM16.5839 38.9815C17.1078 38.7036 17.6576 38.4636 18.2195 38.2397C18.5214 38.1197 18.7614 38.0137 19.0773 37.9098C19.3272 37.8278 19.7311 37.7158 19.9611 37.6058C21.0408 39.6473 21.2527 40.2872 22.9163 41.9708C23.1203 42.1767 23.3222 42.2747 23.4642 42.4866C22.5144 42.5666 23.1223 43.2824 20.5009 41.9447C19.5892 41.4789 18.8173 40.919 18.0195 40.2952C17.7636 40.0952 16.7299 39.2035 16.5799 38.9815H16.5839ZM26.9093 41.9848V36.6041C27.7651 36.6041 30.1825 36.89 30.9623 37.056C31.3082 37.13 31.8701 37.3239 32.228 37.3539C32.082 37.6578 32.0081 37.8998 31.8261 38.2037C31.6481 38.4996 31.5202 38.7735 31.3562 39.0475C30.7204 40.1092 29.9906 41.067 28.9928 41.8148C28.149 42.4466 28.371 41.9848 26.9093 41.9848ZM20.7769 37.3539C21.1208 37.3459 21.6446 37.162 22.0025 37.078C22.4044 36.986 22.8863 36.902 23.2842 36.858C23.7621 36.806 24.13 36.7721 24.6459 36.7181C24.8978 36.6921 25.9356 36.6801 26.0955 36.6021V41.9828C25.4477 41.9828 24.6859 42.2027 24.4679 42.1087C24.406 42.0827 24.146 41.8968 24.056 41.8308C23.6441 41.5349 23.0503 40.975 22.7424 40.5791C21.5507 39.0535 21.6187 38.9435 20.7769 37.3519V37.3539ZM25.9076 45.7378C28.269 45.7378 29.6626 45.6598 31.9161 45.112C33.5197 44.7221 35.1373 44.1422 36.6089 43.4224C36.8409 43.3104 36.9728 43.2084 37.2108 43.0864L39.5122 41.6948L42.9713 38.7716L43.8511 37.7738C44.379 37.18 44.5929 36.854 45.0628 36.2322C45.2368 36.0023 45.7366 35.3544 45.8046 35.0964H44.8649C44.6149 35.5703 44.165 36.0842 43.8451 36.5181L42.0955 38.5236C41.8576 38.7616 41.6656 38.8855 41.4377 39.1175L40.108 40.2911C39.1943 39.6793 38.8584 39.3534 37.7926 38.7895L39.0943 37.026C39.3062 36.7121 39.4822 36.4481 39.6961 36.1262C39.8221 35.9343 40.218 35.2884 40.232 35.0984H39.3562C39.0483 35.6803 37.5687 37.9577 36.9788 38.3516C36.201 37.9397 34.2635 37.064 33.3497 36.85L33.7796 35.6523C34.0216 34.9385 34.0995 35.0984 33.0998 35.0984C33.0618 35.5543 32.7139 36.1102 32.5999 36.6001L29.8926 36.0542L26.9073 35.7863V35.0984H26.0935V35.7863L23.1083 36.0542C22.6844 36.1262 22.1885 36.2022 21.7286 36.3022L20.399 36.6001C20.379 36.3621 20.021 35.6223 19.8991 35.0984H19.0853C19.0933 35.4924 19.5552 36.4481 19.6491 36.85C19.3112 36.928 19.0313 37.056 18.7174 37.17C17.6436 37.5599 17.0478 37.8078 16.02 38.3516C15.6761 38.1217 14.9903 37.144 14.7424 36.814C14.3545 36.3002 13.9426 35.6623 13.6426 35.0984H12.7669C12.8648 35.5163 13.6206 36.6021 13.8806 36.988L14.5104 37.8598C14.6264 38.0057 14.7244 38.1257 14.8463 38.2757C14.9623 38.4176 15.1203 38.5976 15.2062 38.7276C15.0383 38.9575 13.2307 39.9132 12.9548 40.2911L12.251 39.7433C12.017 39.5333 11.8151 39.3734 11.5931 39.1494C10.0055 37.5478 9.43768 37.04 8.13601 35.0984H7.19824C7.25423 35.3044 7.40219 35.4764 7.52816 35.6443C8.168 36.4961 8.77785 37.4559 9.52766 38.2137C9.69162 38.3796 9.84158 38.5076 9.99554 38.6856L12.3749 40.875C13.5946 41.7808 13.8186 41.9408 15.1043 42.7146C16.4099 43.5004 16.9418 43.6283 18.1915 44.1942C18.6514 44.4021 19.0953 44.5041 19.5712 44.6921C21.0408 45.2739 24.334 45.7358 25.9096 45.7358L25.9076 45.7378Z" fill="white"/>
<path fill-rule="evenodd" clip-rule="evenodd" d="M26.9073 9.2597V3.94106C28.3249 3.82309 28.4369 3.54516 28.9728 3.94106C29.9065 4.63089 30.7703 5.73258 31.3522 6.75432C31.5421 7.08424 32.192 8.11799 32.226 8.50989C32.038 8.59987 31.3022 8.73182 31.0123 8.79781C29.7586 9.08374 28.181 9.2597 26.9073 9.2597ZM26.4474 0H26.6434C26.8973 0.015996 27.0532 0.0659972 27.4072 0.0639977C27.7711 0.0619982 28.029 0.0719899 28.3009 0.107981C30.3884 0.377914 30.8623 0.347943 33.0618 0.979785C35.0553 1.55364 37.0548 2.51739 38.8083 3.61712L40.4579 4.78284C41.2417 5.3687 41.3897 5.57265 41.9715 6.08652C43.5092 7.44018 44.6609 8.93182 45.8046 10.6394H44.8028C44.7128 10.2995 43.4792 8.82982 43.2292 8.5199C43.0133 8.25396 42.8913 8.14597 42.6574 7.90203C42.5154 7.75607 42.5034 7.70009 42.3774 7.55612L40.8178 6.11249C40.6199 5.94653 40.3619 5.6946 40.172 5.56863C39.4062 6.0805 38.6964 6.62637 37.8566 7.07026C38.0685 7.38618 38.2725 7.60613 38.5104 7.92005C39.5621 9.3137 39.5361 9.50167 40.2979 10.6374H39.3602C39.0083 9.97155 37.5506 7.80606 37.1067 7.50814L35.3112 8.33996C34.9973 8.47793 34.6793 8.58987 34.3614 8.70384C34.0375 8.82181 33.7956 8.91979 33.4157 9.00977L33.9795 10.6374H33.1037C33.0877 10.4374 32.6938 9.43166 32.6039 9.2597C32.3559 9.37967 31.6441 9.50767 31.3022 9.58565C29.9325 9.89957 28.3969 10.0735 26.9093 10.0735V10.6374H26.0955V10.0735C24.7698 10.0735 21.3647 9.72159 20.4009 9.2597C20.241 9.59562 19.991 10.2495 19.901 10.6374H19.0253C19.1212 10.4354 19.5711 9.22171 19.5891 9.00977L15.898 7.50814L14.9583 8.63388C14.3744 9.44768 14.1205 9.92557 13.6446 10.6374H12.7688C12.8548 10.2655 13.6226 9.17171 13.8705 8.79781C14.3504 8.07599 15.0362 7.29821 15.1462 7.13226L12.8308 5.56863C12.3989 5.94254 11.941 6.29644 11.5331 6.71034C11.2972 6.95028 11.1032 7.06224 10.8753 7.30218C10.1715 8.042 9.26168 9.10575 8.67583 9.92155C8.52187 10.1355 8.26593 10.3954 8.20195 10.6354H7.2002C7.84204 9.67563 8.82779 8.28195 9.65758 7.46015C9.84954 7.2702 9.90952 7.14423 10.0935 6.95828L11.0652 6.0525C11.6451 5.46464 12.9788 4.42291 13.6706 3.96503C15.4241 2.80132 16.6738 2.19147 18.6334 1.41967C19.0772 1.24371 19.6011 1.06973 20.041 0.949763C22.4804 0.285929 22.6483 0.403936 24.8098 0.0880152L26.4514 0H26.4474ZM26.0935 4.067V9.2597C24.6978 9.2597 23.3462 9.08975 22.0305 8.81782C21.7406 8.75784 20.9948 8.61586 20.7748 8.50989C20.9848 7.61012 22.4084 5.49065 23.0103 4.8628C23.2662 4.59687 24.13 3.72709 24.4479 3.72109C24.6219 3.71909 25.2097 3.87306 25.5936 3.87706C25.8496 3.88106 26.0915 3.80107 26.0915 4.067H26.0935ZM29.6606 3.37919C30.8083 3.28321 29.9005 2.68134 31.6361 3.40516C32.9178 3.93902 34.8313 5.18674 35.8071 6.18049C36.067 6.44642 36.3789 6.56636 36.4809 6.94627C36.201 6.97026 33.8816 8.18997 33.0398 8.25995C33.0178 7.98802 32.5399 7.10223 32.3879 6.84629C30.7183 4.03099 29.9005 3.7351 29.6606 3.37919ZM19.961 8.25995C19.3212 8.20597 17.1337 7.20824 16.5199 6.88232C17.2617 5.77659 19.895 4.03702 21.3207 3.42317C23.0542 2.67536 22.2085 3.28521 23.3422 3.37919C23.2042 3.58314 23.0063 3.6811 22.8243 3.86305C22.6344 4.053 22.4704 4.19096 22.3044 4.40691C21.6466 5.2547 21.1447 5.82456 20.6309 6.8623C20.4129 7.30219 20.081 7.75608 19.963 8.25995H19.961ZM31.6621 2.44143C31.97 2.36945 32.3139 2.06952 32.5539 1.88957C32.8438 1.67362 33.0878 1.83757 33.6416 2.02552C34.0195 2.15349 34.3094 2.28345 34.6893 2.41742C35.6831 2.76733 36.7908 3.40918 37.6686 3.88106C37.9785 4.04702 39.3482 4.86682 39.4202 5.13275L37.2927 6.44639C36.8708 6.16446 35.993 5.03477 34.0015 3.7291C33.7336 3.55314 33.5276 3.45518 33.2517 3.29122L32.054 2.67536C31.8181 2.57738 31.7981 2.62939 31.6621 2.44143ZM15.7061 6.44639L13.5786 5.13275C13.6746 4.77284 15.862 3.57914 16.208 3.38319L16.7098 3.13525C17.2957 2.80734 18.6793 2.26348 19.3112 2.04353C19.7931 1.87558 20.161 1.67759 20.4189 1.85354C20.7088 2.05149 20.9788 2.35946 21.3367 2.44343C21.2067 2.62139 21.2267 2.56337 20.9888 2.65935C19.5411 3.2412 17.4636 4.71886 16.3459 5.83858C16.128 6.05653 15.95 6.28443 15.7041 6.44839L15.7061 6.44639ZM21.3367 1.43968L23.4042 1.06775C25.7096 0.75183 28.3369 0.799836 30.6144 1.23573C30.9543 1.29971 31.3442 1.41369 31.6621 1.43968C31.1582 2.19149 28.3209 3.06725 26.9073 3.06725C25.8176 3.06725 25.0737 3.05924 24.028 2.75532L23.4102 2.55937C22.9063 2.37942 21.5826 1.80759 21.3367 1.44168V1.43968Z" fill="white"/>
<path fill-rule="evenodd" clip-rule="evenodd" d="M14.957 55.1877C12.1977 55.1877 12.8136 52.1625 13.3474 51.5127C14.1732 50.5029 15.7268 50.6389 16.3807 51.4487C17.1665 52.4204 17.0625 55.1877 14.957 55.1877ZM11.5779 52.8103C11.5779 53.8341 11.6978 54.6679 12.3437 55.3617C13.4614 56.5614 15.6349 56.7174 16.8126 55.4797C16.9785 55.3057 16.8086 55.3897 17.0205 55.3137C17.0205 56.4654 16.3827 58.9428 14.7691 58.9428C13.7173 58.9428 12.9535 58.341 12.9535 57.3152H11.7018C11.7018 59.7186 14.3952 60.5424 16.1467 59.6326C18.1143 58.6089 18.6241 55.1318 18.1842 52.6484C18.0863 52.0885 17.9523 51.7206 17.7323 51.2867C16.8186 49.4812 14.3392 49.1533 12.7756 50.315C12.1957 50.7469 11.5779 51.8106 11.5779 52.8103Z" fill="white"/>
<path fill-rule="evenodd" clip-rule="evenodd" d="M20.8372 55.3137C20.8372 54.032 20.8312 52.0985 21.8129 51.2207C22.4348 50.6628 23.3985 50.6508 24.0384 51.2367C24.1224 51.3126 24.2783 51.5266 24.3423 51.6206C24.4483 51.7766 24.4843 51.8845 24.5722 52.0805C25.1181 53.2962 25.1101 56.3854 24.5622 57.5991C23.7864 59.3147 21.9609 59.1747 21.2751 57.6291C21.0591 57.1452 20.8372 56.0195 20.8372 55.3137ZM19.4595 54.6878C19.4595 56.2274 19.6475 57.3272 20.2313 58.4229C20.4953 58.9168 20.7952 59.2267 21.2471 59.5346C21.405 59.6426 21.401 59.6286 21.573 59.7086C22.4928 60.1425 23.6065 60.0765 24.4863 59.5906C24.9302 59.3446 25.2181 59.0147 25.492 58.5948C25.638 58.3729 25.718 58.1749 25.8319 57.935C25.9399 57.707 26.0099 57.4231 26.0839 57.1872C26.6137 55.4956 26.6037 51.0667 24.3603 49.975C23.4125 49.5151 22.0069 49.5271 21.1371 50.175C19.8594 51.1267 19.4575 52.9522 19.4575 54.6898L19.4595 54.6878Z" fill="white"/>
<path fill-rule="evenodd" clip-rule="evenodd" d="M30.9124 58.8171C28.0791 58.8171 28.473 52.5246 29.7047 51.2909C30.7104 50.2832 32.9758 50.4632 32.9758 54.8121C32.9758 56.2197 32.7119 58.8171 30.9104 58.8171H30.9124ZM27.4072 54.8121C27.4072 56.6276 27.8931 59.265 29.8866 59.8428C30.7904 60.1047 31.7022 60.0268 32.514 59.5429C33.4597 58.979 33.9336 57.8333 34.1396 56.7896L34.3575 54.8121L34.1495 52.8885C34.0856 52.5706 34.0176 52.3347 33.9236 52.0508C33.4457 50.6031 32.538 49.6833 30.9044 49.6454C29.6447 49.6154 28.7829 50.2212 28.185 51.209C27.8731 51.7268 27.7771 52.1647 27.6212 52.8345C27.4992 53.3604 27.4092 54.2062 27.4092 54.8121H27.4072Z" fill="white"/>
<path fill-rule="evenodd" clip-rule="evenodd" d="M36.2935 51.559V52.5607H38.6709V59.6949H39.9846V49.8074C39.9846 49.5395 39.7446 49.6195 39.1708 49.6195C38.9668 49.6195 38.9788 49.7674 38.9248 49.9373C38.8629 50.1333 38.8429 50.2073 38.7549 50.3932C38.5929 50.7332 38.5149 50.8412 38.249 51.0771C37.8331 51.445 36.8434 51.561 36.2915 51.561L36.2935 51.559Z" fill="white"/>
</svg>
