<svg width="85" height="120" viewBox="0 0 85 120" fill="none" xmlns="http://www.w3.org/2000/svg">
<path fill-rule="evenodd" clip-rule="evenodd" d="M60.5064 58.736L68.5631 66.8602C61.6841 66.892 54.8409 66.8921 47.9977 66.8921C37.9677 66.8921 31.4627 67.4013 22.9764 60.9122L20.9035 59.1775C18.1901 56.7904 15.4489 52.3702 14.1359 49.0839C11.4026 42.2447 11.8244 33.9891 15.1346 27.3727C15.9382 25.7693 17.8997 22.6621 19.2683 21.3094C19.9686 20.6211 20.1595 20.2311 20.9552 19.5985L22.7615 18.0031C23.4339 17.4779 24.0426 17.0404 24.723 16.5669C25.8807 15.7592 27.8143 14.7805 29.1392 14.1837C39.6188 9.50093 52.5174 12.0631 60.1961 19.7458C65.7621 25.3158 68.6586 31.4707 68.6586 39.973C68.6586 46.5178 65.9849 52.2269 62.1536 56.9893C61.6324 57.6338 60.952 58.0596 60.5024 58.736H60.5064ZM0 37.7966C0 43.8242 0.370038 47.3334 2.46675 53.0068C4.81412 59.3567 8.92398 64.6959 13.9728 69.1002C14.307 69.3907 14.6571 69.689 15.0112 69.9675C18.4049 72.6332 22.849 75.092 27.0067 76.4646C27.9814 76.7869 28.7891 77.0494 29.8315 77.312C37.4704 79.2137 42.5311 78.5891 50.7191 78.5891C60.5979 78.5891 70.4807 78.5891 80.3595 78.5891L68.8336 66.9995C69.4423 66.0725 70.2221 65.4757 70.9582 64.5646C72.4183 62.7543 73.7312 61.1908 74.9129 59.1418C78.052 53.6951 80.3556 47.3413 80.3556 40.9278C80.3556 35.8034 80.3715 34.5342 79.1063 29.3979C78.418 26.6168 77.0136 23.3146 75.6887 20.8479L72.8201 16.372L69.4463 12.4053C61.3578 4.32082 51.6739 0 39.8376 0C31.5423 0 22.7615 2.9044 16.2167 7.78613C13.6704 9.68789 11.3549 11.7369 9.28606 14.1797C3.90303 20.5336 0 29.4654 0 37.7966Z" fill="white"/>
<path fill-rule="evenodd" clip-rule="evenodd" d="M50.5805 48.9484L54.5551 52.9946C51.1256 53.0265 47.7239 53.0264 44.3262 53.0264C38.9989 53.0264 35.8438 53.2452 31.6982 50.1539C28.8694 48.0412 26.2395 43.9791 26.2395 40.1079C26.2395 36.4198 26.6255 34.0485 28.8614 31.0327C29.5855 30.054 30.3813 29.2464 31.3122 28.4506C32.291 27.6151 33.2896 27.1337 34.4434 26.5528C38.8198 24.3527 44.7678 25.1007 48.6748 27.8698C50.5925 29.2265 52.4664 31.2914 53.3775 33.4995C55.0047 37.4423 55.1678 41.9858 52.8125 45.8769C51.7144 47.6871 51.3126 47.8503 50.5765 48.9444L50.5805 48.9484ZM20.5303 38.7513C20.5303 43.9911 21.8034 47.3251 24.3378 50.8541C25.0818 51.8925 26.0207 52.8474 26.9557 53.675C28.6386 55.1709 30.2977 56.4002 32.5734 57.3034C37.6421 59.3126 40.1487 58.875 45.6869 58.875C50.5806 58.875 55.4782 58.875 60.3718 58.875C59.6994 57.8684 55.0127 53.838 54.7978 53.0264C55.1121 52.5569 55.5418 52.2784 55.9079 51.8249C57.1571 50.2732 57.8454 49.1473 58.7446 47.3212C62.3452 40.0244 60.2445 31.2197 54.6984 25.6656C46.1484 17.1037 31.7061 18.0864 24.302 27.9693C22.1177 30.8856 20.5342 34.8801 20.5342 38.7513H20.5303Z" fill="white"/>
<path fill-rule="evenodd" clip-rule="evenodd" d="M32.4976 39.2918C32.4976 44.5555 37.8766 48.8643 43.7649 46.4811C46.3987 45.4149 48.4079 42.6418 48.4835 39.4112C48.5074 38.3171 48.1653 37.1235 47.7833 36.2402C47.5804 35.7708 47.3775 35.4206 47.1029 35.0188C45.6627 32.9181 43.1403 31.5415 40.5184 31.5415C39.4163 31.5415 38.1074 31.9234 37.2719 32.2378C34.8211 33.1528 32.4976 36.2163 32.4976 39.2918Z" fill="white"/>
<path fill-rule="evenodd" clip-rule="evenodd" d="M70.0279 112.172C70.0279 110.915 71.0147 110.27 72.3395 110.27C74.1737 110.27 76.0118 112.638 76.0118 114.484C75.5622 114.587 75.6099 114.655 75.0768 114.774C72.7095 115.311 70.0279 113.955 70.0279 112.172ZM77.9135 112.853C77.7862 112.371 77.7862 112.55 77.4918 112.188C77.2889 111.937 77.1655 111.762 76.9308 111.524C75.6179 110.199 74.4283 108.91 72.069 108.91C71.134 108.91 70.5969 109.176 70.0677 109.626C69.3874 110.199 69.4033 110.489 69.0413 111.185L68.9418 111.361C68.8224 110.847 68.5798 110.569 68.4127 110.119C67.1674 106.733 67.6408 99.938 69.0373 97.0456C70.1911 94.6584 71.8183 93.6837 74.5158 93.6837C78.6177 93.6837 80.3643 99.2616 80.3643 103.61C80.3643 106.415 80.2728 108.926 79.0077 111.365C78.7928 111.778 78.2557 112.61 77.9175 112.856L77.9135 112.853ZM64.3147 103.741C64.3147 107.501 64.7245 109.61 66.9764 112.502C68.8662 114.933 72.5027 116.569 75.6219 115.86C76.151 115.741 76.1072 115.673 76.5568 115.57C76.6841 117.082 78.1403 119.377 80.2291 119.377C82.1229 119.377 83.5552 118.327 84.3071 117.201L83.8774 116.68C82.8748 116.883 81.2675 118.367 79.1429 114.348C79.6363 113.612 80.5633 113.561 82.298 110.704C83.5273 108.683 83.766 106.216 83.766 103.741C83.766 99.4287 81.6216 95.5138 78.2358 93.6359C71.2534 89.7607 64.3227 96.3811 64.3227 103.741H64.3147Z" fill="white"/>
<path fill-rule="evenodd" clip-rule="evenodd" d="M19.5828 94.089C19.8652 94.1566 22.8452 94.63 22.8452 95.5849V110.27C22.8452 112.765 22.0972 114.213 19.5828 114.213V115.438H27.4683V114.213C23.6767 114.213 24.3411 110.934 24.3411 107.278C24.3411 103.924 24.3411 100.57 24.3411 97.2162C24.8464 97.5543 29.2269 104.099 30.0783 105.348L36.6071 114.73C36.7543 114.953 36.8538 115.104 36.993 115.299C37.2477 115.653 37.2795 115.538 37.3989 115.983H38.6203V98.171C38.6203 95.6764 39.3683 94.2282 41.8827 94.2282V93.0028H33.9972V94.2282C37.7689 94.2282 37.1244 97.5663 37.1244 100.618C37.1244 103.793 37.1244 106.964 37.1244 110.135L26.601 95.2348C26.227 94.6938 25.2801 93.4444 25.1607 93.0028H19.5867V94.089H19.5828Z" fill="white"/>
<path fill-rule="evenodd" clip-rule="evenodd" d="M11.0131 103.88H7.47617V96.13C7.47617 93.1898 12.4971 93.8901 14.0289 95.1513C15.867 96.6671 16.6906 103.88 11.0092 103.88H11.0131ZM1.36108 94.089C2.06529 94.089 3.40208 94.2163 3.78005 94.5227C4.24554 94.9046 4.35299 96.1062 4.35299 96.9417V111.491C4.35299 114.141 3.73232 114.348 1.36108 114.348V115.438H10.3368V114.348C8.67371 114.348 7.48016 114.416 7.48016 112.307V105.102C9.89914 105.102 12.8871 105.34 14.9798 104.581C17.3709 103.709 19.2448 101.533 18.8549 98.7718C18.5605 96.683 17.8961 95.577 16.5394 94.5505C15.501 93.7668 13.3446 93.0028 11.5622 93.0028H1.36507V94.089H1.36108Z" fill="white"/>
<path fill-rule="evenodd" clip-rule="evenodd" d="M43.51 103.744C43.51 107.266 43.7647 110.182 45.9967 112.816C49.2233 116.619 55.2986 117.073 58.7043 113.91C59.5995 113.082 61.2904 110.755 61.5928 109.454C61.2387 109.215 61.0198 108.952 60.5066 108.909C60.1605 110.385 57.3635 113.667 54.5228 113.667H53.7072C45.6704 113.667 44.6797 98.8708 49.6808 94.9598C51.5508 93.4997 53.7828 93.436 55.8357 94.5421C57.3834 95.3736 58.0001 96.2807 58.9032 97.1878C59.3727 97.6573 59.874 98.1825 60.2321 98.7156C60.5265 98.5207 60.6339 98.4053 61.0477 98.3098C60.996 97.6692 59.8859 95.0752 59.5318 94.1163C59.3806 93.7026 59.0504 93.1057 59.0067 92.6005C58.0001 92.6204 56.7826 93.2888 56.1142 93.1774C54.5506 92.9188 55.2469 92.6005 52.2073 92.6005C50.7869 92.6005 49.4143 93.2291 48.5072 93.794C45.7779 95.4929 43.5061 100.263 43.5061 103.748L43.51 103.744Z" fill="white"/>
</svg>
