<svg width="43" height="60" viewBox="0 0 43 60" fill="none" xmlns="http://www.w3.org/2000/svg">
<path fill-rule="evenodd" clip-rule="evenodd" d="M30.4084 29.5187L34.4574 33.6016C31.0003 33.6176 27.5611 33.6177 24.122 33.6177C19.0813 33.6177 15.8121 33.8736 11.5471 30.6124L10.5054 29.7406C9.14173 28.5409 7.76407 26.3195 7.10424 24.6679C5.73058 21.2307 5.94253 17.0818 7.60611 13.7566C8.01001 12.9508 8.99577 11.3892 9.6836 10.7093C10.0355 10.3634 10.1315 10.1675 10.5314 9.84955L11.4392 9.04775C11.7771 8.78381 12.083 8.56389 12.4249 8.32595C13.0068 7.92005 13.9785 7.42818 14.6444 7.12825C19.911 4.77484 26.3934 6.06252 30.2525 9.92355C33.0498 12.7229 34.5054 15.8161 34.5054 20.089C34.5054 23.3782 33.1618 26.2475 31.2362 28.6409C30.9743 28.9648 30.6324 29.1788 30.4064 29.5187H30.4084ZM0 18.9953C0 22.0245 0.185968 23.7881 1.23971 26.6394C2.41941 29.8306 4.48488 32.5139 7.02225 34.7274C7.19021 34.8733 7.36616 35.0233 7.54412 35.1633C9.24969 36.5029 11.4831 37.7386 13.5726 38.4285C14.0625 38.5904 14.4684 38.7224 14.9923 38.8543C18.8313 39.8101 21.3747 39.4962 25.4896 39.4962C30.4544 39.4962 35.4212 39.4962 40.3859 39.4962L34.5934 33.6716C34.8993 33.2058 35.2912 32.9058 35.6611 32.4479C36.395 31.5381 37.0548 30.7524 37.6486 29.7226C39.2262 26.9853 40.384 23.7921 40.384 20.5689C40.384 17.9935 40.392 17.3557 39.7561 14.7743C39.4102 13.3767 38.7044 11.7171 38.0385 10.4774L36.5969 8.22798L34.9013 6.23448C30.8363 2.17149 25.9695 0 20.021 0C15.8521 0 11.4392 1.45965 8.14997 3.91304C6.87029 4.8688 5.7066 5.89856 4.66686 7.12625C1.96153 10.3195 0 14.8083 0 18.9953Z" fill="white"/>
<path fill-rule="evenodd" clip-rule="evenodd" d="M25.4201 24.5997L27.4176 26.6332C25.694 26.6492 23.9845 26.6492 22.2769 26.6492C19.5995 26.6492 18.0139 26.7591 15.9305 25.2055C14.5088 24.1438 13.1872 22.1023 13.1872 20.1568C13.1872 18.3033 13.3811 17.1115 14.5048 15.5959C14.8687 15.104 15.2686 14.6981 15.7365 14.2982C16.2284 13.8783 16.7303 13.6364 17.3101 13.3445C19.5096 12.2387 22.4988 12.6147 24.4623 14.0063C25.4261 14.6882 26.3679 15.7259 26.8257 16.8356C27.6435 18.8172 27.7255 21.1006 26.5418 23.0561C25.9899 23.9658 25.788 24.0478 25.4181 24.5977L25.4201 24.5997ZM10.3179 19.475C10.3179 22.1083 10.9577 23.7839 12.2314 25.5574C12.6053 26.0793 13.0772 26.5592 13.547 26.9751C14.3928 27.7269 15.2266 28.3447 16.3703 28.7986C18.9177 29.8084 20.1774 29.5885 22.9607 29.5885C25.4201 29.5885 27.8815 29.5885 30.3409 29.5885C30.0029 29.0826 27.6475 27.0571 27.5396 26.6492C27.6975 26.4132 27.9135 26.2733 28.0974 26.0453C28.7253 25.2655 29.0712 24.6997 29.5231 23.7819C31.3326 20.1148 30.2769 15.6899 27.4896 12.8986C23.1926 8.59566 15.9345 9.08955 12.2134 14.0563C11.1157 15.5219 10.3198 17.5295 10.3198 19.475H10.3179Z" fill="white"/>
<path fill-rule="evenodd" clip-rule="evenodd" d="M16.332 19.7467C16.332 22.3921 19.0353 24.5575 21.9946 23.3598C23.3183 22.824 24.328 21.4303 24.366 19.8067C24.378 19.2568 24.2061 18.657 24.0141 18.2131C23.9122 17.9772 23.8102 17.8012 23.6722 17.5992C22.9484 16.5435 21.6807 15.8517 20.363 15.8517C19.8092 15.8517 19.1513 16.0436 18.7314 16.2016C17.4997 16.6615 16.332 18.2011 16.332 19.7467Z" fill="white"/>
<path fill-rule="evenodd" clip-rule="evenodd" d="M35.1935 56.3738C35.1935 55.742 35.6894 55.4181 36.3553 55.4181C37.277 55.4181 38.2008 56.6077 38.2008 57.5355C37.9749 57.5875 37.9989 57.6215 37.7309 57.6815C36.5412 57.9514 35.1935 57.2696 35.1935 56.3738ZM39.1566 56.7157C39.0926 56.4738 39.0926 56.5638 38.9446 56.3818C38.8426 56.2559 38.7806 56.1678 38.6627 56.0479C38.0028 55.382 37.405 54.7342 36.2193 54.7342C35.7494 54.7342 35.4795 54.8682 35.2135 55.0941C34.8716 55.382 34.8796 55.528 34.6977 55.8779L34.6477 55.9659C34.5877 55.708 34.4657 55.568 34.3818 55.342C33.7559 53.6405 33.9938 50.2253 34.6957 48.7717C35.2755 47.572 36.0933 47.0821 37.449 47.0821C39.5105 47.0821 40.3882 49.8854 40.3882 52.0709C40.3882 53.4805 40.3423 54.7422 39.7064 55.9679C39.5985 56.1759 39.3285 56.5938 39.1586 56.7177L39.1566 56.7157ZM32.3223 52.1368C32.3223 54.0264 32.5282 55.0861 33.6599 56.5397C34.6097 57.7614 36.4372 58.5833 38.0049 58.2274C38.2708 58.1674 38.2488 58.1334 38.4747 58.0814C38.5387 58.8412 39.2705 59.9949 40.3203 59.9949C41.272 59.9949 41.9919 59.467 42.3698 58.9012L42.1538 58.6392C41.65 58.7412 40.8421 59.487 39.7744 57.4675C40.0224 57.0976 40.4882 57.0716 41.36 55.636C41.9779 54.6202 42.0978 53.3805 42.0978 52.1368C42.0978 49.9694 41.0201 48.0019 39.3185 47.0581C35.8094 45.1106 32.3263 48.4378 32.3263 52.1368H32.3223Z" fill="white"/>
<path fill-rule="evenodd" clip-rule="evenodd" d="M9.8418 47.2859C9.98376 47.3198 11.4814 47.5578 11.4814 48.0377V55.4179C11.4814 56.6715 11.1055 57.3993 9.8418 57.3993V58.0152H13.8048V57.3993C11.8993 57.3993 12.2332 55.7518 12.2332 53.9142C12.2332 52.2286 12.2332 50.5431 12.2332 48.8575C12.4871 49.0274 14.6886 52.3166 15.1165 52.9445L18.3976 57.6593C18.4716 57.7713 18.5216 57.8472 18.5916 57.9452C18.7196 58.1232 18.7356 58.0652 18.7955 58.2891H19.4094V49.3373C19.4094 48.0837 19.7853 47.3559 21.049 47.3559V46.74H17.086V47.3559C18.9815 47.3559 18.6576 49.0334 18.6576 50.5671C18.6576 52.1627 18.6576 53.7563 18.6576 55.3499L13.3689 47.8617C13.1809 47.5898 12.7051 46.9619 12.6451 46.74H9.84377V47.2859H9.8418Z" fill="white"/>
<path fill-rule="evenodd" clip-rule="evenodd" d="M5.53463 52.2066H3.75707V48.3116C3.75707 46.834 6.28044 47.1859 7.05025 47.8198C7.97401 48.5816 8.38792 52.2066 5.53263 52.2066H5.53463ZM0.683838 47.2859C1.03775 47.2859 1.70957 47.3499 1.89953 47.5038C2.13347 47.6958 2.18747 48.2996 2.18747 48.7195V56.0317C2.18747 57.3634 1.87554 57.4673 0.683838 57.4673V58.0152H5.1947V57.4673C4.35891 57.4673 3.75907 57.5013 3.75907 56.4416V52.8205C4.97477 52.8205 6.47639 52.9405 7.52813 52.5586C8.72983 52.1207 9.67159 51.0269 9.47564 49.6393C9.32768 48.5895 8.99377 48.0337 8.31194 47.5178C7.79007 47.1239 6.70634 46.74 5.81056 46.74H0.685839V47.2859H0.683838Z" fill="white"/>
<path fill-rule="evenodd" clip-rule="evenodd" d="M21.8667 52.1383C21.8667 53.9079 21.9947 55.3735 23.1164 56.6972C24.738 58.6087 27.7913 58.8367 29.5028 57.2471C29.9527 56.8312 30.8025 55.6615 30.9545 55.0076C30.7765 54.8877 30.6665 54.7557 30.4086 54.7337C30.2347 55.4755 28.829 57.1251 27.4014 57.1251H26.9914C22.9525 57.1251 22.4546 49.689 24.968 47.7235C25.9077 46.9896 27.0295 46.9576 28.0612 47.5135C28.839 47.9314 29.1489 48.3873 29.6028 48.8432C29.8387 49.0791 30.0907 49.343 30.2706 49.611C30.4186 49.513 30.4726 49.455 30.6805 49.407C30.6545 49.0851 30.0967 47.7814 29.9187 47.2995C29.8427 47.0916 29.6768 46.7917 29.6548 46.5377C29.1489 46.5477 28.5371 46.8837 28.2012 46.8277C27.4154 46.6977 27.7653 46.5377 26.2377 46.5377C25.5238 46.5377 24.834 46.8536 24.3781 47.1376C23.0065 47.9914 21.8647 50.3888 21.8647 52.1403L21.8667 52.1383Z" fill="white"/>
</svg>
