<svg width="89" height="20" viewBox="0 0 89 20" fill="none" xmlns="http://www.w3.org/2000/svg">
<path fill-rule="evenodd" clip-rule="evenodd" d="M23.2242 17.3693C23.3462 17.5253 23.4522 17.6752 23.5701 17.8092C25.1897 19.6687 25.2797 20.1306 27.919 19.9646C27.911 19.8007 27.3852 19.3748 27.2472 19.2288C26.6054 18.555 25.2497 16.8734 24.5819 16.0656L23.2762 14.464C23.0363 14.1741 22.8263 13.9041 22.6224 13.6602L21.2747 12.0946C20.4449 11.0268 19.4052 9.92115 18.6234 8.92139C18.4394 8.68745 18.1595 8.32754 17.9715 8.11759C16.8458 6.8639 17.3997 7.39977 18.7873 6.36803C20.5069 5.09035 20.6669 3.06485 19.3332 1.71518C18.9793 1.35727 18.5374 1.04132 17.9075 0.787386C17.2517 0.523451 16.6819 0.531473 15.934 0.46149C15.3402 0.407504 11.929 0.437488 11.3472 0.503472C11.5731 0.987351 11.7951 0.885369 11.911 1.79514C12.073 3.06483 11.965 8.94136 11.965 10.6429C11.965 13.8901 11.6691 12.6944 11.3492 13.6802L14.7323 13.6822C14.5724 13.1943 14.1105 13.1503 14.1065 11.1468C14.1045 10.1191 14.1105 9.09335 14.1105 8.0676C14.1105 6.93189 14.0285 2.66891 14.1265 1.92909C15.3062 1.5032 18.0455 1.64921 18.0415 3.97663C18.0375 6.16209 15.8441 6.384 14.7303 6.84388C14.7983 7.15381 16.4459 9.05736 16.9098 9.62522L20.9868 14.62C21.1148 14.7839 21.2227 14.9379 21.3527 15.0938L23.2242 17.3673V17.3693Z" fill="white"/>
<path fill-rule="evenodd" clip-rule="evenodd" d="M72.2361 2.42559C72.386 2.46758 72.3521 2.44156 72.444 2.59752C72.51 2.70749 72.532 2.80549 72.572 2.91946L73.2438 4.767C73.4118 5.22089 74.0936 6.90047 74.0716 7.27038L70.3506 7.27438C70.3466 6.92047 72.0061 2.81349 72.2381 2.42559H72.2361ZM70.6965 0.328115C70.9164 0.903972 71.2743 0.727992 70.8044 2.15364C70.6225 2.7075 70.3725 3.24137 70.1566 3.80323L68.1911 8.78397C67.9831 9.30384 67.7212 9.88573 67.5372 10.4236C67.2893 11.1414 66.8694 12.1592 66.4455 12.807C66.2716 13.0729 66.0296 13.2648 65.9316 13.5268C67.0174 13.5908 67.6352 13.5668 68.749 13.5648C68.675 13.1489 68.0611 13.1069 68.445 11.8912C68.627 11.3133 68.8549 10.8215 69.0709 10.2796C69.9107 8.16812 69.2128 8.64001 72.742 8.64201L74.6855 8.68599C75.0354 9.41181 75.2893 10.3656 75.6052 11.1414C76.515 13.3808 75.9511 12.669 75.5792 13.5128C76.7969 13.6148 78.0306 13.5608 79.2503 13.5308C79.0244 13.1089 78.5365 12.9909 78.0606 11.9912C77.6007 11.0234 76.2471 7.28034 75.7892 6.08664L73.9217 1.1719C73.8297 0.909964 73.7397 0.348071 73.4078 0.288086L70.7005 0.326114L70.6965 0.328115Z" fill="white"/>
<path fill-rule="evenodd" clip-rule="evenodd" d="M65.9476 11.0272C65.6137 11.1132 65.3237 11.2712 65.0078 11.4232C63.3362 12.231 60.8469 12.6229 59.1613 11.6191C58.8134 11.4112 58.6294 11.2192 58.3255 10.9453C56.8639 9.62161 56.434 6.98027 57.0018 5.04275C57.4097 3.6511 58.6154 2.33344 60.0151 1.96154C61.7626 1.49765 63.5102 1.91954 64.9179 2.65736C64.9458 2.22947 64.9698 0.889774 64.8739 0.531863C64.196 0.229938 62.5685 -0.00198667 61.7047 1.28311e-05C56.466 0.0120098 52.9428 5.27269 55.0103 9.89154C55.9201 11.923 57.8256 13.3507 60.0031 13.7526C61.5007 14.0285 62.5424 13.9306 63.9881 13.6046C64.8079 13.4207 64.9698 13.3967 65.2938 12.6609C65.4457 12.317 65.8836 11.3592 65.9476 11.0272Z" fill="white"/>
<path fill-rule="evenodd" clip-rule="evenodd" d="M30.2147 0.467762C29.7908 0.363787 23.9783 0.443736 23.1485 0.485726C23.8563 1.61544 23.7743 1.84139 23.7743 3.58896C23.7743 4.80865 23.7783 5.95438 23.7543 6.99812C23.7223 8.49774 23.8463 10.9731 23.7084 12.3568C23.6184 13.2566 23.2385 13.2166 23.1465 13.6385C23.7583 13.7324 30.6646 13.7544 30.9586 13.6325C31.1805 13.4985 31.8943 11.2131 31.8943 11.2111C31.3404 11.3191 30.3647 11.9989 29.217 12.0928C28.5611 12.1468 26.5057 12.1468 25.9778 11.9369C25.8698 11.6689 25.9038 7.85991 25.9398 7.31005C26.3757 7.24807 27.1855 7.28604 27.6534 7.29404C29.113 7.31803 28.5312 7.52598 29.107 7.59196L29.077 5.86041C28.6151 5.69045 26.6496 5.8844 25.9318 5.75243L25.9178 2.06736C26.5016 1.86341 27.5674 1.79144 28.2692 1.82543C29.5249 1.88542 29.6249 2.22131 30.2527 2.44925L30.2127 0.469763L30.2147 0.467762Z" fill="white"/>
<path fill-rule="evenodd" clip-rule="evenodd" d="M0.711834 4.53875L0.697824 11.707C0.679829 13.3426 0.295944 13.0626 0.0680006 13.6765L3.44116 13.7085C3.38517 13.4705 3.07725 13.1446 2.96928 12.7027C2.77933 11.9189 2.82332 9.01162 2.84531 8.17783C2.8833 6.76219 2.69133 3.11312 2.8233 2.10737C3.41115 1.80945 5.12672 1.8974 5.75057 2.13734C7.18821 2.68921 7.56213 4.41479 6.98827 5.54651C6.75233 6.01239 6.51838 6.20634 6.20046 6.49427C5.39866 7.22009 4.14498 7.33808 3.83706 7.56402C3.84905 7.57402 3.86703 7.572 3.87303 7.58999L4.035 7.664C4.48089 7.77197 5.62261 7.72398 6.0885 7.66199C6.77033 7.57002 7.42016 7.29409 7.90404 6.97017C9.04775 6.20436 9.60561 5.00863 9.40766 3.58899C9.22771 2.29531 8.28394 1.37155 7.10023 0.905669C5.68458 0.345808 3.94702 0.489763 2.22745 0.495761L0 0.517777C0.941765 1.60551 0.709833 2.91916 0.709833 4.54275L0.711834 4.53875Z" fill="white"/>
<path fill-rule="evenodd" clip-rule="evenodd" d="M44.6626 0.427383C44.9725 1.20719 45.2745 0.889255 45.3244 2.91275C45.3664 4.59633 45.2984 5.66207 45.2904 7.11371C45.2864 8.00548 45.3404 11.4486 45.2445 12.1065C45.0925 13.1542 44.7846 13.1622 44.6666 13.6141C45.3684 13.6341 47.222 13.7061 48.0438 13.6661C48.6836 13.6361 52.1328 13.7041 52.4327 13.6021C52.5806 13.5521 52.6726 13.1942 52.7266 13.0302C52.8846 12.5603 53.3564 11.4106 53.3864 11.1287C52.8046 11.3166 52.3427 11.5966 51.7208 11.7965C50.5911 12.1604 49.1875 12.1344 47.9818 11.9785C47.5439 11.9225 47.3979 11.9325 47.3899 11.4826L47.3979 7.20367C47.7838 7.13169 49.4234 7.23566 49.9413 7.29564C50.2012 7.32564 50.3592 7.50158 50.5891 7.53357C50.6051 7.12967 50.6711 6.13993 50.5871 5.79602C49.8733 5.59607 48.1897 5.894 47.4819 5.70405C47.292 5.56408 47.3899 2.94473 47.3919 2.34888C47.3919 2.01096 47.2899 1.923 48.2597 1.82103C50.941 1.5371 50.995 2.19094 51.7508 2.3749V0.401364C50.6731 0.309387 45.4464 0.411383 44.6626 0.42338V0.427383Z" fill="white"/>
<path fill-rule="evenodd" clip-rule="evenodd" d="M38.0171 10.7512C37.8432 10.6812 37.8932 10.6912 37.8232 10.5032L35.3078 3.16106C35.1479 2.71117 35.0159 2.28126 34.8819 1.84737C34.73 1.35749 34.706 0.895632 34.582 0.471737C34.3081 0.403754 32.2166 0.409753 31.9307 0.471737C31.9807 0.667689 32.2306 1.03757 32.3546 1.29351C32.8544 2.32325 33.0264 2.83713 33.3963 3.94885C33.8142 5.19854 34.2381 6.43423 34.682 7.65193C35.3398 9.45548 36.0436 12.6027 37.4813 13.5864C38.1351 14.0343 38.3031 14.0123 38.439 13.6944L43.6517 0.423751L40.7105 0.443717C40.9084 0.883607 41.2264 1.05955 41.2843 1.6794C41.3763 2.65515 40.4065 4.69067 40.0246 5.70442L38.557 9.54946C38.455 9.79739 38.0991 10.6692 38.0211 10.7532L38.0171 10.7512Z" fill="white"/>
<path fill-rule="evenodd" clip-rule="evenodd" d="M82.5053 11.7405C82.4294 10.7548 82.4774 4.01647 82.4934 2.57683C82.5154 0.549336 82.8333 1.07518 83.1932 0.305375C82.7973 0.243391 81.8435 0.259365 81.4216 0.283359C80.8898 0.313352 80.2779 0.287391 79.7141 0.317384C79.844 0.57332 79.964 0.641268 80.098 0.931196C80.2019 1.15514 80.2819 1.41111 80.3199 1.66905C80.4499 2.50884 80.4399 11.4546 80.2879 12.2604C80.12 13.1422 79.888 13.0922 79.6741 13.5101C80.4899 13.5761 87.1842 13.6301 87.6681 13.4741L88.5039 11.0647C87.89 11.2247 87.0602 11.8545 85.7325 11.9764C84.8148 12.0584 83.2572 12.0284 82.5074 11.7425L82.5053 11.7405Z" fill="white"/>
</svg>
