<svg width="177" height="40" viewBox="0 0 177 40" fill="none" xmlns="http://www.w3.org/2000/svg">
<path fill-rule="evenodd" clip-rule="evenodd" d="M46.2114 34.5613C46.4541 34.8716 46.665 35.17 46.8997 35.4366C50.1224 39.1366 50.3014 40.0557 55.5532 39.7255C55.5373 39.3992 54.4909 38.5517 54.2164 38.2613C52.9392 36.9205 50.2418 33.5746 48.9129 31.9672L46.3149 28.7804C45.8375 28.2035 45.4197 27.6664 45.0139 27.181L42.3323 24.0657C40.6812 21.9411 38.6123 19.741 37.0567 17.7517C36.6907 17.2862 36.1337 16.5701 35.7597 16.1523C33.5197 13.6578 34.6218 14.724 37.383 12.6711C40.8046 10.1288 41.1228 6.09843 38.4691 3.41288C37.7649 2.70072 36.8856 2.07205 35.6324 1.56676C34.3274 1.04159 33.1935 1.05755 31.7055 0.918301C30.5239 0.810879 23.7364 0.870542 22.5786 1.00184C23.0282 1.96465 23.4698 1.76173 23.7006 3.57199C24.0229 6.09839 23.808 17.7915 23.808 21.1772C23.808 27.6385 23.2192 25.2593 22.5826 27.2207L29.3144 27.2247C28.9961 26.2539 28.077 26.1664 28.0691 22.1799C28.0651 20.1349 28.0771 18.0939 28.0771 16.0529C28.0771 13.793 27.9139 5.3106 28.1089 3.83852C30.4562 2.99108 35.9069 3.28161 35.899 7.91269C35.891 12.2613 31.5265 12.7029 29.3104 13.6179C29.4457 14.2346 32.724 18.0223 33.6471 19.1522L41.7594 29.0907C42.0141 29.417 42.2289 29.7233 42.4875 30.0336L46.2114 34.5573V34.5613Z" fill="white"/>
<path fill-rule="evenodd" clip-rule="evenodd" d="M143.734 4.82667C144.033 4.91022 143.965 4.85845 144.148 5.16878C144.28 5.3876 144.323 5.58259 144.403 5.80937L145.74 9.48559C146.074 10.3887 147.431 13.7307 147.387 14.4668L139.983 14.4748C139.975 13.7705 143.277 5.59852 143.738 4.82667H143.734ZM140.671 0.653136C141.109 1.79897 141.821 1.44881 140.886 4.28554C140.524 5.38761 140.026 6.44989 139.597 7.56788L135.686 17.4785C135.272 18.5129 134.751 19.6708 134.385 20.741C133.891 22.1693 133.056 24.1944 132.212 25.4835C131.866 26.0126 131.385 26.3945 131.19 26.9157C133.35 27.043 134.58 26.9954 136.796 26.9914C136.649 26.1638 135.427 26.0802 136.191 23.6613C136.553 22.5114 137.007 21.5327 137.436 20.4545C139.107 16.2531 137.719 17.1921 144.741 17.196L148.608 17.2836C149.304 18.7278 149.81 20.6256 150.438 22.1693C152.249 26.6253 151.127 25.209 150.387 26.8879C152.81 27.0908 155.264 26.9834 157.691 26.9237C157.242 26.0842 156.271 25.8495 155.324 23.8602C154.409 21.9345 151.716 14.4866 150.804 12.1114L147.088 2.33209C146.905 1.81089 146.726 0.692844 146.066 0.573486L140.679 0.649153L140.671 0.653136Z" fill="white"/>
<path fill-rule="evenodd" clip-rule="evenodd" d="M131.222 21.9419C130.558 22.113 129.981 22.4274 129.352 22.7298C126.026 24.3371 121.073 25.1169 117.719 23.1197C117.026 22.7059 116.66 22.3239 116.056 21.7788C113.147 19.145 112.292 13.8893 113.422 10.034C114.233 7.26492 116.632 4.64306 119.417 3.90305C122.895 2.98001 126.372 3.81949 129.173 5.28759C129.229 4.43617 129.276 1.77046 129.085 1.0583C127.737 0.457528 124.498 -0.00395306 122.779 2.55312e-05C112.356 0.0238971 105.345 10.4916 109.459 19.6821C111.269 23.7243 115.061 26.5651 119.394 27.3648C122.374 27.9138 124.446 27.7189 127.323 27.0704C128.954 26.7043 129.276 26.6566 129.921 25.1925C130.223 24.5082 131.095 22.6024 131.222 21.9419Z" fill="white"/>
<path fill-rule="evenodd" clip-rule="evenodd" d="M60.1209 0.930851C59.2775 0.723964 47.7117 0.883045 46.0606 0.966596C47.469 3.2145 47.3059 3.66409 47.3059 7.14138C47.3059 9.56832 47.3139 11.8481 47.2661 13.9249C47.2025 16.9088 47.4492 21.8343 47.1746 24.5875C46.9956 26.3779 46.2397 26.2983 46.0566 27.1378C47.2741 27.3248 61.0162 27.3685 61.601 27.1258C62.0426 26.8593 63.463 22.3118 63.463 22.3078C62.3609 22.5227 60.4193 23.8753 58.1356 24.0623C56.8307 24.1698 52.7407 24.1697 51.6903 23.752C51.4755 23.2189 51.5432 15.6397 51.6148 14.5456C52.4821 14.4222 54.0934 14.4978 55.0244 14.5137C57.9288 14.5615 56.771 14.9752 57.9168 15.1065L57.8572 11.6611C56.9381 11.3229 53.0272 11.7088 51.5988 11.4462L51.571 4.11372C52.7327 3.70791 54.8533 3.56469 56.2498 3.63233C58.7483 3.75169 58.9473 4.42004 60.1966 4.8736L60.117 0.934833L60.1209 0.930851Z" fill="white"/>
<path fill-rule="evenodd" clip-rule="evenodd" d="M1.4164 9.03149L1.38852 23.2948C1.35272 26.5493 0.588866 25.9922 0.135307 27.2136L6.84719 27.2774C6.73579 26.8039 6.12309 26.1554 5.90824 25.2761C5.53028 23.7165 5.61781 17.9316 5.66157 16.2725C5.73717 13.4557 5.35518 6.19479 5.61777 4.19356C6.78747 3.60075 10.2011 3.77577 11.4424 4.2532C14.303 5.35129 15.0471 8.78483 13.9052 11.0367C13.4357 11.9637 12.9702 12.3496 12.3376 12.9226C10.7422 14.3668 8.24764 14.6016 7.63494 15.0511C7.65881 15.071 7.69459 15.067 7.70653 15.1028L8.02881 15.2501C8.91604 15.4649 11.1878 15.3694 12.1148 15.2461C13.4715 15.0631 14.7646 14.5141 15.7274 13.8695C18.0031 12.3457 19.1132 9.96646 18.7193 7.14166C18.3612 4.56751 16.4833 2.72943 14.128 1.80242C11.3111 0.688418 7.85374 0.974857 4.43215 0.986792L0 1.0306C1.87392 3.19495 1.41242 5.80884 1.41242 9.03946L1.4164 9.03149Z" fill="white"/>
<path fill-rule="evenodd" clip-rule="evenodd" d="M88.8691 0.850572C89.4858 2.40222 90.0866 1.7696 90.1861 5.79593C90.2696 9.1459 90.1343 11.2665 90.1184 14.155C90.1105 15.9294 90.2179 22.7805 90.0269 24.0895C89.7246 26.1743 89.1118 26.1902 88.8771 27.0894C90.2736 27.1291 93.9617 27.2724 95.5969 27.1928C96.8701 27.1331 103.733 27.2684 104.33 27.0655C104.624 26.966 104.807 26.2538 104.915 25.9275C105.229 24.9926 106.168 22.7049 106.228 22.1439C105.07 22.5179 104.151 23.0749 102.914 23.4728C100.666 24.1969 97.8727 24.1451 95.4736 23.8348C94.6023 23.7234 94.3119 23.7433 94.2959 22.8481L94.3119 14.334C95.0797 14.1907 98.3422 14.3976 99.3726 14.517C99.8898 14.5766 100.204 14.9267 100.662 14.9904C100.694 14.1867 100.825 12.2173 100.658 11.533C99.2373 11.1352 95.8874 11.728 94.479 11.35C94.101 11.0715 94.2959 5.85956 94.2999 4.67394C94.2999 4.00156 94.097 3.82655 96.0266 3.62364C101.362 3.05868 101.469 4.35968 102.973 4.72571V0.7988C100.829 0.615785 90.4287 0.818735 88.8691 0.842607V0.850572Z" fill="white"/>
<path fill-rule="evenodd" clip-rule="evenodd" d="M75.646 21.3927C75.2998 21.2535 75.3993 21.2734 75.26 20.8994L70.255 6.29001C69.9367 5.39483 69.6741 4.5394 69.4076 3.67605C69.1052 2.7013 69.0574 1.78229 68.8108 0.938827C68.2657 0.803555 64.1041 0.81549 63.5352 0.938827C63.6346 1.32873 64.1319 2.06471 64.3786 2.57397C65.3733 4.62295 65.7154 5.64546 66.4514 7.85755C67.283 10.3442 68.1265 12.8029 69.0097 15.2259C70.3187 18.8146 71.7191 25.0769 74.5797 27.0343C75.8807 27.9255 76.2149 27.8818 76.4854 27.2492L86.8576 0.843344L81.0052 0.883072C81.399 1.75836 82.0316 2.10845 82.147 3.34181C82.33 5.28337 80.4004 9.33362 79.6405 11.3508L76.7202 19.0016C76.5173 19.4949 75.8091 21.2296 75.6539 21.3967L75.646 21.3927Z" fill="white"/>
<path fill-rule="evenodd" clip-rule="evenodd" d="M164.169 23.3615C164.017 21.4001 164.113 7.9923 164.145 5.12771C164.188 1.09342 164.821 2.13975 165.537 0.607989C164.749 0.484653 162.852 0.516439 162.012 0.564182C160.954 0.623861 159.736 0.572205 158.614 0.631884C158.873 1.14114 159.112 1.27635 159.378 1.85324C159.585 2.29884 159.744 2.80818 159.82 3.32141C160.079 4.99242 160.059 22.7926 159.756 24.396C159.422 26.1506 158.961 26.0511 158.535 26.8826C160.158 27.0139 173.478 27.1214 174.441 26.811L176.104 22.0168C174.883 22.3351 173.232 23.5883 170.59 23.831C168.764 23.9941 165.665 23.9344 164.173 23.3655L164.169 23.3615Z" fill="white"/>
</svg>
